<svg width="425" height="317" viewBox="0 0 425 317" fill="none" xmlns="http://www.w3.org/2000/svg">
<path d="M248.323 18.1107C248.248 17.695 248.032 17.3193 247.714 17.049C247.397 16.7786 246.996 16.6307 246.583 16.6307C241.548 16.6307 237.784 15.2907 234.949 12.4607C232.329 9.84071 231.528 6.08071 230.687 2.09071L230.55 1.43074C230.464 1.03573 230.252 0.681124 229.948 0.422375C229.643 0.163627 229.264 0.0153449 228.869 0.000744487C228.471 -0.0109285 228.08 0.114953 227.761 0.358105C227.442 0.601258 227.212 0.947441 227.109 1.34071C224.274 11.8207 216.502 16.4507 210.489 18.4907C210.131 18.6071 209.819 18.837 209.597 19.1471C209.375 19.4572 209.256 19.8315 209.256 20.2157C209.256 20.5999 209.375 20.9743 209.597 21.2844C209.819 21.5945 210.131 21.8244 210.489 21.9407C215.573 23.5707 219.386 29.4707 221.683 34.1407C224.215 39.2807 225.369 45.1407 226.493 50.7507C226.574 51.161 226.792 51.5297 227.109 51.7941C227.427 52.0585 227.824 52.2022 228.233 52.2008H228.399C228.837 52.1608 229.244 51.955 229.54 51.6238C229.837 51.2926 230.002 50.8599 230.003 50.4107C230.091 35.7807 238.997 23.3107 247.189 20.1507C247.583 20.0022 247.913 19.716 248.12 19.3427C248.328 18.9693 248.4 18.533 248.323 18.1107Z" fill="#FFFEF7"/>
<path d="M21.5398 80.7144C21.4983 80.4914 21.3799 80.2899 21.205 80.1449C21.0302 79.9999 20.8099 79.9205 20.5825 79.9206C17.8129 79.9206 15.7425 79.2018 14.1829 77.6838C12.7416 76.2785 12.3006 74.2616 11.8381 72.1214L11.7628 71.7674C11.7154 71.5556 11.5989 71.3653 11.4315 71.2266C11.2641 71.0878 11.0553 71.0082 10.8378 71.0004C10.6189 70.9941 10.4043 71.0617 10.2287 71.1921C10.053 71.3225 9.92659 71.5082 9.86981 71.7191C8.31023 77.3405 4.03482 79.824 0.72743 80.9183C0.530496 80.9807 0.358581 81.104 0.236581 81.2703C0.114581 81.4367 0.0488281 81.6374 0.0488281 81.8435C0.0488281 82.0496 0.114581 82.2504 0.236581 82.4167C0.358581 82.5831 0.530496 82.7064 0.72743 82.7688C3.52392 83.6431 5.6213 86.8078 6.8851 89.3127C8.27797 92.0698 8.91255 95.2131 9.53101 98.2222C9.57578 98.4423 9.69564 98.64 9.87018 98.7819C10.0447 98.9237 10.2632 99.0008 10.4883 99H10.5797C10.8203 98.9786 11.0442 98.8682 11.2074 98.6905C11.3706 98.5129 11.4613 98.2808 11.4617 98.0398C11.5101 90.1924 16.4093 83.5036 20.916 81.8087C21.1327 81.729 21.3142 81.5755 21.4283 81.3752C21.5425 81.175 21.582 80.9409 21.5398 80.7144Z" fill="#FFFEF7"/>
<path d="M424.491 188.714C424.45 188.491 424.331 188.29 424.156 188.145C423.981 188 423.761 187.921 423.534 187.921C420.764 187.921 418.694 187.202 417.134 185.684C415.693 184.278 415.252 182.262 414.789 180.121L414.714 179.767C414.667 179.556 414.55 179.365 414.383 179.227C414.215 179.088 414.007 179.008 413.789 179C413.57 178.994 413.356 179.062 413.18 179.192C413.004 179.323 412.878 179.508 412.821 179.719C411.261 185.341 406.986 187.824 403.679 188.918C403.482 188.981 403.31 189.104 403.188 189.27C403.066 189.437 403 189.637 403 189.844C403 190.05 403.066 190.25 403.188 190.417C403.31 190.583 403.482 190.706 403.679 190.769C406.475 191.643 408.572 194.808 409.836 197.313C411.229 200.07 411.864 203.213 412.482 206.222C412.527 206.442 412.647 206.64 412.821 206.782C412.996 206.924 413.214 207.001 413.439 207H413.531C413.771 206.979 413.995 206.868 414.159 206.691C414.322 206.513 414.412 206.281 414.413 206.04C414.461 198.192 419.361 191.504 423.867 189.809C424.084 189.729 424.265 189.575 424.38 189.375C424.494 189.175 424.533 188.941 424.491 188.714Z" fill="#FFFEF7"/>
<path d="M391.127 140.862L245.43 92.5L109.393 67.2446C108.596 67.0966 107.788 67.4445 107.348 68.1253L12.2696 215.231C11.5402 216.359 12.0789 217.863 13.3718 218.23C55.9027 230.29 141.576 253.324 163.799 254.5C186.063 264.402 275.418 304.695 328.897 315.196C329.833 315.379 330.721 314.906 331.074 314.02C344.919 279.292 377.174 187.381 392.4 143.377C392.764 142.324 392.185 141.213 391.127 140.862Z" fill="#FFFEF7"/>
<path d="M245.43 92.5L391.127 140.862C392.185 141.213 392.764 142.324 392.4 143.377C377.174 187.381 344.919 279.292 331.074 314.02C330.721 314.906 329.833 315.379 328.897 315.196C275.418 304.695 186.063 264.402 163.799 254.5M245.43 92.5L109.393 67.2446C108.596 67.0966 107.788 67.4445 107.348 68.1253L12.2696 215.231C11.5402 216.359 12.079 217.863 13.3718 218.23C55.9027 230.29 141.576 253.324 163.799 254.5M245.43 92.5L163.799 254.5" stroke="#242424" stroke-width="2"/>
<path d="M119.521 90.8876C119.849 90.3079 120.519 90.0124 121.167 90.1617L202.282 108.864C202.724 108.966 203.096 109.263 203.293 109.672C203.489 110.081 203.49 110.557 203.295 110.968L190.41 138.034C190.106 138.673 189.398 139.014 188.71 138.853L105.585 119.405C105.126 119.298 104.745 118.98 104.556 118.548C104.368 118.116 104.394 117.619 104.626 117.208L119.521 90.8876Z" stroke="#242424" stroke-width="3" stroke-linecap="round" stroke-linejoin="round"/>
<path d="M121.474 192.675C120.406 191.231 119.418 188.722 117.717 189.012C116.436 189.23 115.577 190.642 114.27 190.8C113.299 190.917 112.774 189.555 111.936 189.176C110.765 188.646 109.108 189.213 107.833 188.832C106.253 188.361 105.47 186.696 104.05 186.011C102.842 185.428 101.273 186.479 100.005 186.194C98.2568 185.801 97.8402 184.549 95.8431 184.79C93.7694 185.04 93.3142 185.161 91.7652 183.071C89.7504 180.353 90.119 180.389 88.4455 182.252C87.6511 183.137 86.8154 183.373 85.9091 182.558C83.7466 180.614 80.9594 183.492 78.5112 181.088C76.0084 178.63 75.4209 178.335 72.4449 178.694C70.2384 178.96 69.0856 177.888 67.0272 177.29" stroke="#242424" stroke-width="3" stroke-linecap="round" stroke-linejoin="round"/>
<path d="M119.351 207.339C117.006 204.341 116.727 204.938 114.304 206.576C113.508 207.114 111.823 208.292 111.119 206.96C109.159 203.254 107.07 206.572 105.28 204.196C104.184 202.741 102.783 201.65 101.211 202.019C100.281 202.237 97.4318 204.338 96.5929 203.491C95.4285 202.314 94.4803 199.043 92.7938 198.918C91.1041 198.793 90.1642 199.73 88.7494 198.3C85.1558 194.669 78.1058 201.69 74.4585 198.005C72.4477 195.973 70.5093 197.746 69.0411 195.266C68.6137 194.544 67.2386 195.202 66.5723 194.84C65.7797 194.408 64.8961 193.539 64.4494 192.694" stroke="#242424" stroke-width="3" stroke-linecap="round" stroke-linejoin="round"/>
<path d="M351.5 260.5C259.214 238.1 206.325 207 245.429 92.5C222.944 132.5 182.373 219.5 163.799 254.5C208.28 274.5 287.467 308.5 330.481 315.5C330.318 314.667 337.814 300 351.5 260.5Z" fill="#242424"/>
<path d="M383.764 169L368.8 163.283C354.903 157.974 348.334 142.068 354.436 128.5L393.052 142L383.764 169Z" fill="#1C1C1C" stroke="#242424"/>
</svg>
