<svg width="433" height="327" viewBox="0 0 433 327" fill="none" xmlns="http://www.w3.org/2000/svg">
<path d="M65 175.721V274.763C65 277.348 66.6554 279.642 69.1084 280.457L134.82 302.288L204.641 325.483L287.316 302.288L365.659 280.308C368.226 279.588 370.01 277.259 370.038 274.592L371 180.26L302.944 163.872L236.074 147.769C235.291 147.58 234.479 147.551 233.685 147.683L149.944 161.602L65 175.721Z" fill="#FFFEF7"/>
<path d="M65 175.721H63.5V174.45L64.7541 174.242L65 175.721ZM204.641 325.483L205.046 326.928C204.758 327.008 204.452 327.001 204.168 326.907L204.641 325.483ZM370.038 274.592L368.538 274.577V274.577L370.038 274.592ZM371 180.26L371.351 178.801C372.031 178.965 372.507 179.576 372.5 180.275L371 180.26ZM69.1084 280.457L68.6355 281.881H68.6354L69.1084 280.457ZM236.074 147.769L236.425 146.311H236.425L236.074 147.769ZM287.316 302.288L287.722 303.732L287.316 302.288ZM365.659 280.308L365.254 278.864L365.659 280.308ZM233.685 147.683L233.931 149.163L233.931 149.163L233.685 147.683ZM287.568 250.35L289.068 250.358L287.568 250.35ZM66.5 175.721V274.763H63.5V175.721H66.5ZM206.141 216.566V325.483H203.141V216.566H206.141ZM368.538 274.577L369.5 180.244L372.5 180.275L371.538 274.608L368.538 274.577ZM204.168 326.907L134.348 303.711L135.293 300.864L205.114 324.06L204.168 326.907ZM134.348 303.711L68.6355 281.881L69.5813 279.034L135.293 300.864L134.348 303.711ZM204.22 218.005L134.399 197.583L135.242 194.704L205.062 215.126L204.22 218.005ZM134.399 197.583L64.5789 177.161L65.4211 174.282L135.242 194.704L134.399 197.583ZM133.32 302.288V196.143H136.32V302.288H133.32ZM236.425 146.311L303.295 162.413L302.593 165.33L235.722 149.227L236.425 146.311ZM303.295 162.413L371.351 178.801L370.649 181.718L302.593 165.33L303.295 162.413ZM303.227 165.345L219.165 181.481L218.599 178.534L302.661 162.398L303.227 165.345ZM219.165 181.481L135.103 197.617L134.538 194.67L218.599 178.534L219.165 181.481ZM371.32 181.725L288.14 199.878L287.501 196.947L370.68 178.794L371.32 181.725ZM288.14 199.878L204.961 218.031L204.321 215.1L287.501 196.947L288.14 199.878ZM219.269 178.558L288.207 196.963L287.434 199.862L218.495 181.457L219.269 178.558ZM204.236 324.039L286.911 300.844L287.722 303.732L205.046 326.928L204.236 324.039ZM286.911 300.844L365.254 278.864L366.064 281.752L287.722 303.732L286.911 300.844ZM64.7541 174.242L149.698 160.123L150.19 163.082L65.2459 177.201L64.7541 174.242ZM149.698 160.123L233.439 146.204L233.931 149.163L150.19 163.082L149.698 160.123ZM218.495 181.457L149.557 163.052L150.331 160.153L219.269 178.558L218.495 181.457ZM285.816 302.281L286.068 250.343L289.068 250.358L288.816 302.295L285.816 302.281ZM286.068 250.343L286.32 198.405L289.32 198.42L289.068 250.358L286.068 250.343ZM66.5 274.763C66.5 276.702 67.7415 278.423 69.5813 279.034L68.6354 281.881C65.5692 280.862 63.5 277.994 63.5 274.763H66.5ZM371.538 274.608C371.504 277.941 369.274 280.852 366.064 281.752L365.254 278.864C367.179 278.324 368.517 276.577 368.538 274.577L371.538 274.608ZM235.722 149.227C235.136 149.086 234.526 149.064 233.931 149.163L233.439 146.204C234.431 146.039 235.447 146.075 236.425 146.311L235.722 149.227Z" fill="#242424"/>
<path d="M134 300.983V195.733L217.375 179.733M300.75 163.733L217.375 179.733M217.375 179.733L285.75 197.983L285.5 249.483L285.25 300.983M217.375 179.733L149 161.483" stroke="#242424" stroke-width="2" stroke-linecap="round"/>
<path d="M171.991 126.222L212.952 177.005L146.965 159.738C138.217 157.449 131.905 149.832 131.281 140.81C130.635 131.474 136.226 122.83 145.006 119.591L146.274 119.123C155.481 115.726 165.83 118.583 171.991 126.222Z" stroke="#242424" stroke-width="4" stroke-linecap="round" stroke-linejoin="round"/>
<path d="M259.809 128.189L218.3 178.525L284.47 161.975C293.243 159.781 299.637 152.232 300.359 143.218C301.106 133.889 295.609 125.186 286.865 121.851L285.602 121.37C276.432 117.873 266.053 120.617 259.809 128.189Z" stroke="#242424" stroke-width="4" stroke-linecap="round" stroke-linejoin="round"/>
<path d="M208.962 18.1107C208.885 17.695 208.665 17.3193 208.339 17.049C208.014 16.7786 207.605 16.6307 207.182 16.6307C202.032 16.6307 198.182 15.2907 195.282 12.4607C192.602 9.84071 191.782 6.08071 190.922 2.09071L190.782 1.43074C190.694 1.03573 190.477 0.681124 190.166 0.422375C189.855 0.163627 189.466 0.0153449 189.062 0.000744487C188.655 -0.0109285 188.256 0.114953 187.929 0.358105C187.603 0.601258 187.367 0.947441 187.262 1.34071C184.362 11.8207 176.412 16.4507 170.262 18.4907C169.896 18.6071 169.576 18.837 169.349 19.1471C169.122 19.4572 169 19.8315 169 20.2157C169 20.5999 169.122 20.9743 169.349 21.2844C169.576 21.5945 169.896 21.8244 170.262 21.9407C175.462 23.5707 179.362 29.4707 181.712 34.1407C184.302 39.2807 185.482 45.1407 186.632 50.7507C186.715 51.161 186.938 51.5297 187.263 51.7941C187.587 52.0585 187.993 52.2022 188.412 52.2008H188.582C189.029 52.1608 189.446 51.955 189.749 51.6238C190.052 51.2926 190.221 50.8599 190.222 50.4107C190.312 35.7807 199.422 23.3107 207.802 20.1507C208.205 20.0022 208.542 19.716 208.755 19.3427C208.967 18.9693 209.04 18.533 208.962 18.1107Z" fill="#FFFEF7"/>
<path d="M26.2319 161.888C26.1813 161.615 26.0367 161.369 25.8233 161.191C25.6098 161.014 25.341 160.917 25.0634 160.917C21.6829 160.917 19.1557 160.037 17.252 158.179C15.4928 156.46 14.9546 153.992 14.39 151.372L14.2981 150.939C14.2402 150.68 14.098 150.447 13.8937 150.277C13.6894 150.107 13.4346 150.01 13.1691 150C12.9019 149.993 12.6399 150.075 12.4255 150.235C12.2111 150.395 12.0568 150.622 11.9875 150.88C10.0839 157.759 4.86531 160.799 0.828302 162.138C0.587924 162.214 0.378084 162.365 0.229171 162.569C0.080258 162.772 0 163.018 0 163.27C0 163.522 0.080258 163.768 0.229171 163.972C0.378084 164.175 0.587924 164.326 0.828302 164.402C4.2417 165.472 6.80176 169.345 8.34436 172.411C10.0445 175.785 10.8191 179.631 11.5739 183.314C11.6286 183.583 11.7749 183.825 11.9879 183.999C12.201 184.172 12.4676 184.267 12.7424 184.266H12.854C13.1477 184.24 13.421 184.104 13.6201 183.887C13.8193 183.67 13.9301 183.386 13.9305 183.091C13.9896 173.487 19.9696 165.302 25.4705 163.227C25.735 163.13 25.9565 162.942 26.0958 162.697C26.2352 162.452 26.2834 162.165 26.2319 161.888Z" fill="#FFFEF7"/>
<path d="M432.232 124.888C432.181 124.615 432.037 124.369 431.823 124.191C431.61 124.014 431.341 123.917 431.063 123.917C427.683 123.917 425.156 123.037 423.252 121.179C421.493 119.46 420.955 116.992 420.39 114.372L420.298 113.939C420.24 113.68 420.098 113.447 419.894 113.277C419.689 113.107 419.435 113.01 419.169 113C418.902 112.993 418.64 113.075 418.426 113.235C418.211 113.395 418.057 113.622 417.987 113.88C416.084 120.759 410.865 123.799 406.828 125.138C406.588 125.214 406.378 125.365 406.229 125.569C406.08 125.772 406 126.018 406 126.27C406 126.522 406.08 126.768 406.229 126.972C406.378 127.175 406.588 127.326 406.828 127.402C410.242 128.472 412.802 132.345 414.344 135.411C416.044 138.785 416.819 142.631 417.574 146.314C417.629 146.583 417.775 146.825 417.988 146.999C418.201 147.172 418.468 147.267 418.742 147.266H418.854C419.148 147.24 419.421 147.104 419.62 146.887C419.819 146.67 419.93 146.386 419.931 146.091C419.99 136.487 425.97 128.302 431.47 126.227C431.735 126.13 431.956 125.942 432.096 125.697C432.235 125.452 432.283 125.165 432.232 124.888Z" fill="#FFFEF7"/>
</svg>
