<svg width="331" height="368" viewBox="0 0 331 368" fill="none" xmlns="http://www.w3.org/2000/svg">
<path d="M176.133 221.076L176.157 221.078H176.181C181.227 221.078 185.361 220.071 188.972 218.12C192.425 216.254 195.344 213.554 198.106 210.159C215.181 212.362 230.307 215.125 244.248 223.902C258.273 232.732 271.212 247.724 283.617 274.657C282.573 279.58 280.955 284.302 278.86 288.825C260.481 328.486 211.137 346.292 163.798 343.284C116.562 340.281 72.0465 316.614 62.7428 274.133C73.9023 247.258 88.3104 232.143 104.139 223.176C119.867 214.266 137.086 211.372 154.186 209.17C159.154 216.698 166.502 220.611 176.133 221.076Z" fill="#FFFEF7" stroke="#242424" stroke-width="2"/>
<path d="M157.617 189.032C160.454 197.403 171.989 204.892 194.603 199.868C193.572 194.335 196.225 193.903 195.199 188.375C181.199 194.375 157.617 189.032 157.617 189.032Z" fill="#242424"/>
<path d="M156.158 189.369C156.521 192.702 156.866 196.061 156.521 199.404C156.18 202.668 155.006 205.805 153.505 208.879C152.962 209.99 155.378 210.468 155.916 209.364C157.422 206.283 158.56 203.143 158.968 199.879C159.403 196.382 159.04 192.862 158.659 189.372C158.529 188.202 156.028 188.192 156.158 189.369Z" fill="#242424"/>
<path d="M234.672 102.508C232.946 102.539 231.243 103.498 230.491 105.094C229.657 106.853 229.98 108.828 231.208 110.303C232.22 111.522 233.946 112.219 234.667 113.677C234.905 114.153 234.941 114.671 234.613 115.116C234.286 115.566 233.699 115.881 233.148 115.755C231.754 115.44 231.158 117.595 232.557 117.905C234.201 118.274 235.936 117.455 236.697 115.935C237.567 114.198 236.747 112.363 235.46 111.104C234.385 110.051 232.516 109.21 232.256 107.573C232.019 106.066 233.179 104.766 234.667 104.744C236.101 104.717 236.106 102.485 234.672 102.508Z" fill="#242424"/>
<path d="M113.232 115.787C111.766 115.76 110.592 114.491 110.812 112.998C111.058 111.334 112.941 110.488 114.025 109.422C115.293 108.18 116.113 106.386 115.293 104.663C114.549 103.102 112.793 102.243 111.117 102.621C109.723 102.936 110.31 105.086 111.708 104.771C112.259 104.645 112.847 104.96 113.174 105.41C113.496 105.855 113.465 106.377 113.227 106.849C112.497 108.306 110.781 108.999 109.768 110.223C108.549 111.689 108.208 113.682 109.051 115.431C109.817 117.024 111.498 117.986 113.232 118.018C114.661 118.04 114.661 115.809 113.232 115.787Z" fill="#242424"/>
<path d="M189.303 83.4315C195.433 82.9277 201.631 85.9505 204.925 91.1907C205.687 92.4007 207.61 91.2852 206.843 90.0662C203.155 84.2007 196.209 80.6337 189.303 81.2005C188.702 81.25 188.191 81.6773 188.191 82.316C188.191 82.8828 188.702 83.481 189.303 83.4315Z" fill="#242424"/>
<path d="M143.986 90.4929C145.608 88.3743 147.549 86.638 149.955 85.5C152.823 84.1461 156.126 83.7683 159.272 83.6423C160.697 83.5839 160.706 81.3528 159.272 81.4113C155.705 81.5552 152.093 82.032 148.831 83.5749C146.079 84.8748 143.901 86.9709 142.064 89.3684C141.696 89.8452 141.992 90.6188 142.462 90.8932C143.036 91.2306 143.619 90.9742 143.986 90.4929Z" fill="#242424"/>
<path d="M233.598 93.7849C233.571 93.8434 233.544 93.9019 233.518 93.9513C233.383 94.2347 233.249 94.5136 233.11 94.7925C232.859 95.3232 232.59 95.845 232.325 96.3578C232.294 96.4208 232.254 96.4793 232.209 96.5242C230.041 97.9643 217.532 83.9971 216.533 63.4184C216.38 60.2697 214.014 56.6713 211.16 55.3623C185.727 43.7348 161.868 45.4441 132.878 55.3623C129.234 56.6128 127.003 60.2967 127.59 64.1201C128.979 73.1657 122.183 101.959 112.279 97.3218C111.531 97.0885 110.736 97.0885 110.736 97.0885C110.517 96.5262 110.264 95.9395 109.928 94.8959C109.122 92.386 107.898 88.5222 105.841 83.5068C104.205 79.5305 102.722 75.4957 101.548 71.3575C101.337 70.6108 101.131 69.8641 100.938 69.113C98.2227 58.7584 95.8206 31.7564 119.98 30.3261C119.98 19.4947 120.818 -6.81456 206.118 1.65082C248.306 5.84752 248.539 62.114 233.598 93.7849Z" fill="#242424"/>
<path d="M163.211 153.803C168.571 157.244 175.45 158.09 181.526 156.241C183.252 155.715 184.914 154.972 186.447 154.028C187.666 153.281 186.55 151.347 185.327 152.103C178.976 155.998 170.601 155.899 164.336 151.878C163.126 151.1 162.01 153.029 163.211 153.803Z" fill="#242424"/>
<path d="M195.294 97.4071C198.513 97.4071 198.517 92.3867 195.294 92.3867C192.071 92.3867 192.066 97.4071 195.294 97.4071Z" fill="#242424"/>
<path d="M154.88 98.4599C158.099 98.4599 158.103 93.4395 154.88 93.4395C151.662 93.4395 151.657 98.4599 154.88 98.4599Z" fill="#242424"/>
<path d="M173.48 83.4353C176.028 95.5711 178.589 107.999 179.009 120.45C179.096 123.086 179.136 125.812 178.655 128.416C177.921 132.388 174.682 136.202 170.233 134.461C168.764 133.886 168.13 136.315 169.586 136.881C174.083 138.64 178.637 135.802 180.373 131.398C180.958 129.914 181.172 128.299 181.325 126.716C181.994 119.699 180.967 112.443 179.971 105.516C178.873 97.8786 177.418 90.3039 175.832 82.7606C175.504 81.1863 173.148 81.8565 173.48 83.4353Z" fill="#242424"/>
<path d="M243.976 116.478C242.188 122.712 237.967 128.155 231.522 129.486C229.515 138.991 226.095 148.383 221.99 157.145C216.25 169.434 208.008 182.055 195.881 188.78C195.689 188.883 195.501 188.991 195.303 189.09C194.712 189.405 194.116 189.707 193.506 189.994C193.417 190.039 193.323 190.08 193.228 190.12C182.563 195.028 170.131 194.393 159.214 190.17C158.744 189.99 158.278 189.801 157.812 189.608C157.592 189.518 157.377 189.423 157.157 189.324C153.823 187.876 150.655 186.086 147.746 184.021C135.965 175.646 127.678 163.118 121.92 150.015C119.038 143.457 116.479 136.548 114.973 129.509C111.424 128.852 108.265 127.12 105.867 124.34C101.395 119.154 99.6783 111.53 101.076 104.864C102.103 99.9789 105.479 95.9547 109.942 94.8482C110.363 95.8088 110.681 96.5025 110.9 97.0648C105.415 98.2703 102.833 104.9 103.151 110.653C103.555 118.124 107.996 126.176 116.018 127.165C116.546 127.228 117.111 127.498 117.228 128.083C118.895 136.323 121.973 144.469 125.581 152.026C131.734 164.909 140.545 177.184 153.057 184.466C166.537 192.315 184.055 193.831 197.374 184.921C209.335 176.918 216.976 163.321 222.291 150.258C225.195 143.12 227.718 135.658 229.259 128.083C229.38 127.498 229.945 127.233 230.469 127.165C244.326 125.326 248.09 95.04 232.074 96.6143C232.029 96.6188 231.988 96.6188 231.944 96.6143C231.988 96.5649 232.024 96.5109 232.06 96.4479C232.329 95.9351 232.593 95.4133 232.844 94.8826C232.988 94.6037 233.122 94.3248 233.252 94.0414C233.279 93.9875 233.306 93.9335 233.333 93.875C233.328 93.9335 233.328 93.983 233.328 94.0414C236.344 94.0504 239.204 95.1749 241.252 97.5184C245.63 102.507 245.715 110.41 243.976 116.478Z" fill="#242424"/>
<path d="M182.404 175.414C181.015 174.402 179.298 173.916 177.609 173.731C175.982 173.556 174.23 173.691 172.697 174.294C171.877 174.613 171.111 175.045 170.483 175.679C169.735 176.439 170.9 177.609 171.653 176.853C171.756 176.75 171.868 176.651 171.98 176.552C172.088 176.457 171.89 176.61 172.043 176.502C172.114 176.453 172.186 176.403 172.258 176.354C172.388 176.268 172.527 176.187 172.666 176.115C172.737 176.079 172.809 176.043 172.881 176.007C172.935 175.98 173.154 175.886 173.006 175.949C173.333 175.814 173.67 175.701 174.01 175.611C174.18 175.567 174.355 175.526 174.53 175.495C174.62 175.477 174.705 175.459 174.794 175.445C174.848 175.436 175.108 175.396 174.96 175.418C175.731 175.315 176.515 175.301 177.286 175.364C177.474 175.378 177.667 175.4 177.855 175.423C177.707 175.405 177.958 175.441 177.999 175.445C178.106 175.463 178.214 175.481 178.317 175.504C178.698 175.576 179.074 175.67 179.446 175.787C179.648 175.85 179.845 175.917 180.042 175.994C180.091 176.012 180.141 176.034 180.186 176.052C180.105 176.021 180.15 176.034 180.204 176.061C180.298 176.102 180.392 176.147 180.481 176.192C180.862 176.381 181.23 176.597 181.575 176.848C181.938 177.114 182.494 176.911 182.704 176.552C182.946 176.129 182.767 175.679 182.404 175.414Z" fill="#242424"/>
<path d="M194.151 188.341C192.869 195.688 194.366 202.9 196.661 210.062C197.02 211.18 199.431 210.707 199.073 209.589C196.822 202.571 195.397 195.538 196.652 188.341C196.854 187.203 194.348 187.213 194.151 188.341Z" fill="#242424"/>
<path d="M30.5 183.883C25.8634 171.47 24.3336 167.836 22.6279 158.983C22.2455 156.999 20.3981 155.695 18.5015 156.071C16.6049 156.448 15.3774 158.361 15.7597 160.346C17.5206 169.485 17.2964 172.453 21.5574 186.613C21.5693 186.653 21.5756 186.695 21.5752 186.737V186.737C21.5611 188.175 20.4252 189.253 19.1767 188.539C18.6491 188.237 18.0529 187.809 17.4089 187.203C13.2412 182.185 13.1783 181.882 9.50499 173.464C8.69947 171.618 6.62046 170.787 4.86139 171.606C3.10233 172.426 2.32933 174.587 3.13485 176.433V176.433C10.0785 192.345 13.874 210.264 23.6839 224.589C24.6681 226.026 25.622 227.229 26.4974 228.092C29.5431 231.093 30.1979 257.066 32.8074 287.423M30.5 183.883C30.0088 182.669 30.9704 185.142 30.5 183.883ZM30.5 183.883C30.5 183.883 31.4737 186.482 31.1122 183.974C29.1579 170.413 30.0722 162.773 30.1603 154.058C30.1807 152.038 31.7655 150.438 33.7001 150.482C35.6348 150.527 37.1866 152.2 37.1662 154.219C37.0813 162.618 37.5562 170.775 39.4452 183.883C39.7484 169.64 40.8101 171.649 40.4132 160.996C40.4785 159.196 40.5437 157.4 40.6022 155.598C40.6676 153.581 42.2882 152.019 44.2218 152.111C46.1554 152.202 47.6699 153.912 47.6045 155.93C48.5018 168.464 49.0314 181.37 50.4066 193.875C50.6571 196.154 52.8115 197.751 54.9871 197.03C58.5983 195.834 62.0557 193.905 67.6176 190.776C69.3125 189.822 74.4416 189.033 76.3227 192.622C77.2557 194.402 76.6975 195.156 75.0027 196.11C68.0001 200.05 63.5379 208.017 60.5245 214.572C58.1712 219.691 56.0559 225.814 50.9024 228.092V228.092C50.5079 228.266 56.2845 252.663 65.3066 283.296" stroke="#242424" stroke-width="2.5" stroke-linecap="round" stroke-linejoin="round"/>
</svg>
