<svg width="155" height="20" viewBox="0 0 155 20" fill="none" xmlns="http://www.w3.org/2000/svg">
<path d="M33.3844 15.15C32.5744 15.15 31.7894 15.035 31.0294 14.805C30.2794 14.575 29.6844 14.27 29.2444 13.89L29.9194 12.375C30.3494 12.715 30.8744 12.995 31.4944 13.215C32.1244 13.425 32.7544 13.53 33.3844 13.53C34.1644 13.53 34.7444 13.405 35.1244 13.155C35.5144 12.905 35.7094 12.575 35.7094 12.165C35.7094 11.865 35.5994 11.62 35.3794 11.43C35.1694 11.23 34.8994 11.075 34.5694 10.965C34.2394 10.855 33.7894 10.73 33.2194 10.59C32.4194 10.4 31.7694 10.21 31.2694 10.02C30.7794 9.83 30.3544 9.535 29.9944 9.135C29.6444 8.725 29.4694 8.175 29.4694 7.485C29.4694 6.905 29.6244 6.38 29.9344 5.91C30.2544 5.43 30.7294 5.05 31.3594 4.77C31.9994 4.49 32.7794 4.35 33.6994 4.35C34.3394 4.35 34.9694 4.43 35.5894 4.59C36.2094 4.75 36.7444 4.98 37.1944 5.28L36.5794 6.795C36.1194 6.525 35.6394 6.32 35.1394 6.18C34.6394 6.04 34.1544 5.97 33.6844 5.97C32.9144 5.97 32.3394 6.1 31.9594 6.36C31.5894 6.62 31.4044 6.965 31.4044 7.395C31.4044 7.695 31.5094 7.94 31.7194 8.13C31.9394 8.32 32.2144 8.47 32.5444 8.58C32.8744 8.69 33.3244 8.815 33.8944 8.955C34.6744 9.135 35.3144 9.325 35.8144 9.525C36.3144 9.715 36.7394 10.01 37.0894 10.41C37.4494 10.81 37.6294 11.35 37.6294 12.03C37.6294 12.61 37.4694 13.135 37.1494 13.605C36.8394 14.075 36.3644 14.45 35.7244 14.73C35.0844 15.01 34.3044 15.15 33.3844 15.15ZM44.2355 14.565C44.0155 14.745 43.7455 14.88 43.4255 14.97C43.1155 15.06 42.7855 15.105 42.4355 15.105C41.5555 15.105 40.8755 14.875 40.3955 14.415C39.9155 13.955 39.6755 13.285 39.6755 12.405V8.55H38.3555V7.05H39.6755V5.22H41.5505V7.05H43.6955V8.55H41.5505V12.36C41.5505 12.75 41.6455 13.05 41.8355 13.26C42.0255 13.46 42.3005 13.56 42.6605 13.56C43.0805 13.56 43.4305 13.45 43.7105 13.23L44.2355 14.565ZM53.0818 11.04C53.0818 11.17 53.0718 11.355 53.0518 11.595H46.7668C46.8768 12.185 47.1618 12.655 47.6218 13.005C48.0918 13.345 48.6718 13.515 49.3618 13.515C50.2418 13.515 50.9668 13.225 51.5368 12.645L52.5418 13.8C52.1818 14.23 51.7268 14.555 51.1768 14.775C50.6268 14.995 50.0068 15.105 49.3168 15.105C48.4368 15.105 47.6618 14.93 46.9918 14.58C46.3218 14.23 45.8018 13.745 45.4318 13.125C45.0718 12.495 44.8918 11.785 44.8918 10.995C44.8918 10.215 45.0668 9.515 45.4168 8.895C45.7768 8.265 46.2718 7.775 46.9018 7.425C47.5318 7.075 48.2418 6.9 49.0318 6.9C49.8118 6.9 50.5068 7.075 51.1168 7.425C51.7368 7.765 52.2168 8.25 52.5568 8.88C52.9068 9.5 53.0818 10.22 53.0818 11.04ZM49.0318 8.4C48.4318 8.4 47.9218 8.58 47.5018 8.94C47.0918 9.29 46.8418 9.76 46.7518 10.35H51.2968C51.2168 9.77 50.9718 9.3 50.5618 8.94C50.1518 8.58 49.6418 8.4 49.0318 8.4ZM59.3603 6.9C60.1403 6.9 60.8353 7.07 61.4453 7.41C62.0653 7.75 62.5503 8.23 62.9003 8.85C63.2503 9.47 63.4253 10.185 63.4253 10.995C63.4253 11.805 63.2503 12.525 62.9003 13.155C62.5503 13.775 62.0653 14.255 61.4453 14.595C60.8353 14.935 60.1403 15.105 59.3603 15.105C58.2803 15.105 57.4253 14.745 56.7953 14.025V17.91H54.9203V6.99H56.7053V8.04C57.0153 7.66 57.3953 7.375 57.8453 7.185C58.3053 6.995 58.8103 6.9 59.3603 6.9ZM59.1503 13.5C59.8403 13.5 60.4053 13.27 60.8453 12.81C61.2953 12.35 61.5203 11.745 61.5203 10.995C61.5203 10.245 61.2953 9.64 60.8453 9.18C60.4053 8.72 59.8403 8.49 59.1503 8.49C58.7003 8.49 58.2953 8.595 57.9353 8.805C57.5753 9.005 57.2903 9.295 57.0803 9.675C56.8703 10.055 56.7653 10.495 56.7653 10.995C56.7653 11.495 56.8703 11.935 57.0803 12.315C57.2903 12.695 57.5753 12.99 57.9353 13.2C58.2953 13.4 58.7003 13.5 59.1503 13.5ZM69.786 6.9C70.796 6.9 71.606 7.195 72.216 7.785C72.826 8.375 73.131 9.25 73.131 10.41V15H71.256V10.65C71.256 9.95 71.091 9.425 70.761 9.075C70.431 8.715 69.961 8.535 69.351 8.535C68.661 8.535 68.116 8.745 67.716 9.165C67.316 9.575 67.116 10.17 67.116 10.95V15H65.241V3.87H67.116V7.92C67.426 7.59 67.806 7.34 68.256 7.17C68.716 6.99 69.226 6.9 69.786 6.9ZM78.6071 6.9C79.7871 6.9 80.6871 7.185 81.3071 7.755C81.9371 8.315 82.2521 9.165 82.2521 10.305V15H80.4821V14.025C80.2521 14.375 79.9221 14.645 79.4921 14.835C79.0721 15.015 78.5621 15.105 77.9621 15.105C77.3621 15.105 76.8371 15.005 76.3871 14.805C75.9371 14.595 75.5871 14.31 75.3371 13.95C75.0971 13.58 74.9771 13.165 74.9771 12.705C74.9771 11.985 75.2421 11.41 75.7721 10.98C76.3121 10.54 77.1571 10.32 78.3071 10.32H80.3771V10.2C80.3771 9.64 80.2071 9.21 79.8671 8.91C79.5371 8.61 79.0421 8.46 78.3821 8.46C77.9321 8.46 77.4871 8.53 77.0471 8.67C76.6171 8.81 76.2521 9.005 75.9521 9.255L75.2171 7.89C75.6371 7.57 76.1421 7.325 76.7321 7.155C77.3221 6.985 77.9471 6.9 78.6071 6.9ZM78.3521 13.74C78.8221 13.74 79.2371 13.635 79.5971 13.425C79.9671 13.205 80.2271 12.895 80.3771 12.495V11.565H78.4421C77.3621 11.565 76.8221 11.92 76.8221 12.63C76.8221 12.97 76.9571 13.24 77.2271 13.44C77.4971 13.64 77.8721 13.74 78.3521 13.74ZM89.2409 6.9C90.2509 6.9 91.0609 7.195 91.6709 7.785C92.2809 8.375 92.5859 9.25 92.5859 10.41V15H90.7109V10.65C90.7109 9.95 90.5459 9.425 90.2159 9.075C89.8859 8.715 89.4159 8.535 88.8059 8.535C88.1159 8.535 87.5709 8.745 87.1709 9.165C86.7709 9.575 86.5709 10.17 86.5709 10.95V15H84.6959V6.99H86.4809V8.025C86.7909 7.655 87.1809 7.375 87.6509 7.185C88.1209 6.995 88.6509 6.9 89.2409 6.9ZM109.01 15L108.995 8.04L105.545 13.8H104.675L101.225 8.13V15H99.365V4.5H100.97L105.14 11.46L109.235 4.5H110.84L110.855 15H109.01ZM121.079 11.04C121.079 11.17 121.069 11.355 121.049 11.595H114.764C114.874 12.185 115.159 12.655 115.619 13.005C116.089 13.345 116.669 13.515 117.359 13.515C118.239 13.515 118.964 13.225 119.534 12.645L120.539 13.8C120.179 14.23 119.724 14.555 119.174 14.775C118.624 14.995 118.004 15.105 117.314 15.105C116.434 15.105 115.659 14.93 114.989 14.58C114.319 14.23 113.799 13.745 113.429 13.125C113.069 12.495 112.889 11.785 112.889 10.995C112.889 10.215 113.064 9.515 113.414 8.895C113.774 8.265 114.269 7.775 114.899 7.425C115.529 7.075 116.239 6.9 117.029 6.9C117.809 6.9 118.504 7.075 119.114 7.425C119.734 7.765 120.214 8.25 120.554 8.88C120.904 9.5 121.079 10.22 121.079 11.04ZM117.029 8.4C116.429 8.4 115.919 8.58 115.499 8.94C115.089 9.29 114.839 9.76 114.749 10.35H119.294C119.214 9.77 118.969 9.3 118.559 8.94C118.149 8.58 117.639 8.4 117.029 8.4ZM130.762 3.87V15H128.962V13.965C128.652 14.345 128.267 14.63 127.807 14.82C127.357 15.01 126.857 15.105 126.307 15.105C125.537 15.105 124.842 14.935 124.222 14.595C123.612 14.255 123.132 13.775 122.782 13.155C122.432 12.525 122.257 11.805 122.257 10.995C122.257 10.185 122.432 9.47 122.782 8.85C123.132 8.23 123.612 7.75 124.222 7.41C124.842 7.07 125.537 6.9 126.307 6.9C126.837 6.9 127.322 6.99 127.762 7.17C128.202 7.35 128.577 7.62 128.887 7.98V3.87H130.762ZM126.532 13.5C126.982 13.5 127.387 13.4 127.747 13.2C128.107 12.99 128.392 12.695 128.602 12.315C128.812 11.935 128.917 11.495 128.917 10.995C128.917 10.495 128.812 10.055 128.602 9.675C128.392 9.295 128.107 9.005 127.747 8.805C127.387 8.595 126.982 8.49 126.532 8.49C126.082 8.49 125.677 8.595 125.317 8.805C124.957 9.005 124.672 9.295 124.462 9.675C124.252 10.055 124.147 10.495 124.147 10.995C124.147 11.495 124.252 11.935 124.462 12.315C124.672 12.695 124.957 12.99 125.317 13.2C125.677 13.4 126.082 13.5 126.532 13.5ZM133.253 6.99H135.128V15H133.253V6.99ZM134.198 5.67C133.858 5.67 133.573 5.565 133.343 5.355C133.113 5.135 132.998 4.865 132.998 4.545C132.998 4.225 133.113 3.96 133.343 3.75C133.573 3.53 133.858 3.42 134.198 3.42C134.538 3.42 134.823 3.525 135.053 3.735C135.283 3.935 135.398 4.19 135.398 4.5C135.398 4.83 135.283 5.11 135.053 5.34C134.833 5.56 134.548 5.67 134.198 5.67ZM142.171 6.9C143.181 6.9 143.991 7.195 144.601 7.785C145.211 8.375 145.516 9.25 145.516 10.41V15H143.641V10.65C143.641 9.95 143.476 9.425 143.146 9.075C142.816 8.715 142.346 8.535 141.736 8.535C141.046 8.535 140.501 8.745 140.101 9.165C139.701 9.575 139.501 10.17 139.501 10.95V15H137.626V6.99H139.411V8.025C139.721 7.655 140.111 7.375 140.581 7.185C141.051 6.995 141.581 6.9 142.171 6.9ZM150.992 6.9C152.172 6.9 153.072 7.185 153.692 7.755C154.322 8.315 154.637 9.165 154.637 10.305V15H152.867V14.025C152.637 14.375 152.307 14.645 151.877 14.835C151.457 15.015 150.947 15.105 150.347 15.105C149.747 15.105 149.222 15.005 148.772 14.805C148.322 14.595 147.972 14.31 147.722 13.95C147.482 13.58 147.362 13.165 147.362 12.705C147.362 11.985 147.627 11.41 148.157 10.98C148.697 10.54 149.542 10.32 150.692 10.32H152.762V10.2C152.762 9.64 152.592 9.21 152.252 8.91C151.922 8.61 151.427 8.46 150.767 8.46C150.317 8.46 149.872 8.53 149.432 8.67C149.002 8.81 148.637 9.005 148.337 9.255L147.602 7.89C148.022 7.57 148.527 7.325 149.117 7.155C149.707 6.985 150.332 6.9 150.992 6.9ZM150.737 13.74C151.207 13.74 151.622 13.635 151.982 13.425C152.352 13.205 152.612 12.895 152.762 12.495V11.565H150.827C149.747 11.565 149.207 11.92 149.207 12.63C149.207 12.97 149.342 13.24 149.612 13.44C149.882 13.64 150.257 13.74 150.737 13.74Z" fill="#242424"/>
<circle cx="10.2852" cy="10" r="9.59139" fill="#FFC800" stroke="#242424" stroke-width="0.817217"/>
<path d="M15.7728 6.82451L15.7728 6.82443C15.266 6.10646 14.3043 5.68486 13.3475 5.75488L15.7728 6.82451ZM15.7728 6.82451C15.8805 6.97686 16.0637 6.97228 16.178 6.9129C16.237 6.88224 16.2936 6.83037 16.3203 6.75793C16.349 6.67994 16.3366 6.59486 16.2842 6.52058L16.2842 6.52057M15.7728 6.82451L16.2842 6.52057M16.2842 6.52057C15.6593 5.63539 14.4896 5.10322 13.3296 5.18801L13.3295 5.18801M16.2842 6.52057L13.3295 5.18801M13.3295 5.18801C13.1962 5.19779 13.0356 5.2901 13.0356 5.47145M13.3295 5.18801L13.0356 5.47145M13.0356 5.47145C13.0356 5.55244 13.0752 5.62524 13.1278 5.67471M13.0356 5.47145L13.1278 5.67471M13.1278 5.67471C13.1815 5.72523 13.2592 5.76136 13.3475 5.75488L13.1278 5.67471Z" fill="#242424" stroke="#242424" stroke-width="0.245165"/>
<path d="M4.92055 6.82451L4.92061 6.82443C5.42731 6.10646 6.38905 5.68486 7.34588 5.75488L4.92055 6.82451ZM4.92055 6.82451C4.81285 6.97686 4.62971 6.97228 4.5154 6.9129C4.45638 6.88224 4.39975 6.83037 4.37306 6.75793C4.34432 6.67994 4.35671 6.59486 4.40914 6.52058L4.40915 6.52057M4.92055 6.82451L4.40915 6.52057M4.40915 6.52057C5.03409 5.63539 6.20377 5.10322 7.36379 5.18801L7.36383 5.18801M4.40915 6.52057L7.36383 5.18801M7.36383 5.18801C7.49712 5.19779 7.65774 5.2901 7.65774 5.47145M7.36383 5.18801L7.65774 5.47145M7.65774 5.47145C7.65774 5.55244 7.61811 5.62524 7.56554 5.67471M7.65774 5.47145L7.56554 5.67471M7.56554 5.67471C7.51184 5.72523 7.43421 5.76136 7.34591 5.75488L7.56554 5.67471Z" fill="#242424" stroke="#242424" stroke-width="0.245165"/>
<path d="M13.7482 8.77195C14.5332 8.77195 14.5343 7.59277 13.7482 7.59277C12.9621 7.59277 12.961 8.77195 13.7482 8.77195Z" fill="#242424"/>
<path d="M6.89469 8.77195C7.67971 8.77195 7.68081 7.59277 6.89469 7.59277C6.10857 7.59277 6.10747 8.77195 6.89469 8.77195Z" fill="#242424"/>
<path d="M10.1819 6.34444C10.6388 8.51339 11.098 10.7346 11.1733 12.9598C11.1889 13.4309 11.196 13.9181 11.1098 14.3836C10.9781 15.0934 10.3974 15.7751 9.59968 15.464C9.33637 15.3611 9.22274 15.7952 9.4837 15.8965C10.2901 16.2108 11.1067 15.7036 11.4178 14.9166C11.5228 14.6513 11.5612 14.3627 11.5886 14.0797C11.7085 12.8256 11.5243 11.5289 11.3457 10.2908C11.149 8.9258 10.888 7.57201 10.6035 6.22385C10.5448 5.94248 10.1224 6.06227 10.1819 6.34444Z" fill="#242424"/>
<path fill-rule="evenodd" clip-rule="evenodd" d="M11.7521 14.0958C11.7246 14.3802 11.6847 14.6887 11.5706 14.977C11.2363 15.8226 10.3385 16.4052 9.42518 16.0491C9.19631 15.9602 9.14424 15.7271 9.18794 15.5622C9.21035 15.4776 9.26126 15.391 9.34673 15.3365C9.43796 15.2783 9.54972 15.269 9.66001 15.3121V15.3121C9.99868 15.4442 10.2807 15.3668 10.5 15.182C10.7268 14.9909 10.8895 14.6799 10.9499 14.3541V14.3541C11.0325 13.908 11.0264 13.437 11.0108 12.9657C10.9361 10.7569 10.4801 8.54931 10.0228 6.37847C9.97169 6.13593 10.1347 5.9643 10.3044 5.91597C10.3897 5.89169 10.4897 5.8932 10.5796 5.93904C10.6741 5.98722 10.7403 6.07588 10.7643 6.19061C11.0492 7.54041 11.3109 8.89797 11.5083 10.2679V10.2679C11.6865 11.5026 11.8742 12.8189 11.7521 14.0958Z" fill="#242424"/>
</svg>
