<svg width="24" height="24" viewBox="0 0 24 24" fill="none" xmlns="http://www.w3.org/2000/svg">
<path d="M8.661 19C15.4537 19 19.1685 13.6131 19.1685 8.94248C19.1685 8.78996 19.1685 8.63744 19.1572 8.48603C19.8806 7.98425 20.5039 7.36533 21 6.65578C20.3261 6.94203 19.6106 7.12881 18.8794 7.2117C19.65 6.76962 20.2271 6.07554 20.5028 5.25657C19.7783 5.66881 18.9851 5.95838 18.1583 6.11422C16.7599 4.69069 14.4199 4.62217 12.9326 5.96059C11.9741 6.82377 11.5669 8.11025 11.8639 9.33815C8.895 9.19558 6.1275 7.85384 4.25325 5.6456C3.27225 7.26033 3.77288 9.32599 5.39625 10.3638C4.809 10.3472 4.23412 10.1958 3.72 9.92171C3.72 9.93608 3.72 9.95155 3.72 9.96702C3.72 11.6492 4.95975 13.0992 6.68325 13.4319C6.13988 13.5734 5.5695 13.5944 5.016 13.4927C5.49975 14.9328 6.88575 15.9186 8.46638 15.9474C7.15913 16.931 5.54363 17.4648 3.87975 17.4637C3.585 17.4626 3.29138 17.445 3 17.4118C4.68863 18.4496 6.654 19 8.661 18.9967" fill="#242424"/>
</svg>
