<?xml version="1.0" standalone="no"?>
<!DOCTYPE svg PUBLIC "-//W3C//DTD SVG 20010904//EN"
 "http://www.w3.org/TR/2001/REC-SVG-20010904/DTD/svg10.dtd">
<svg version="1.0" xmlns="http://www.w3.org/2000/svg"
 width="700.000000pt" height="700.000000pt" viewBox="0 0 700.000000 700.000000"
 preserveAspectRatio="xMidYMid meet">
<metadata>
Created by potrace 1.11, written by Peter Selinger 2001-2013
</metadata>
<g transform="translate(0.000000,700.000000) scale(0.100000,-0.100000)"
fill="#000000" stroke="none">
<path d="M4340 4899 c-30 -12 -40 -26 -40 -61 0 -45 31 -58 143 -58 288 0 556
-138 734 -377 57 -78 78 -87 121 -57 33 23 27 59 -22 128 -88 122 -244 254
-386 326 -158 80 -460 135 -550 99z"/>
<path d="M2525 4879 c-160 -21 -335 -77 -440 -141 -132 -81 -305 -256 -305
-310 0 -34 24 -58 59 -58 23 0 40 14 87 71 79 94 180 173 289 225 112 53 221
80 385 95 69 6 135 15 147 20 27 10 39 52 24 85 -10 23 -15 24 -93 23 -46 -1
-114 -6 -153 -10z"/>
<path d="M3532 4863 c-7 -3 -19 -17 -26 -32 -13 -24 -9 -52 39 -287 110 -530
178 -935 214 -1274 45 -411 51 -795 16 -955 -53 -246 -240 -391 -425 -330 -61
20 -96 11 -106 -30 -17 -67 31 -106 147 -120 198 -24 418 132 488 348 66 202
73 575 21 1017 -67 563 -252 1603 -295 1650 -17 19 -45 24 -73 13z"/>
<path d="M4595 4257 c-87 -87 -30 -237 90 -237 71 0 115 41 130 120 7 44 -28
119 -65 137 -14 7 -47 13 -73 13 -42 0 -54 -5 -82 -33z"/>
<path d="M2429 4224 c-42 -18 -79 -76 -79 -126 0 -106 116 -173 201 -115 43
29 59 60 59 117 0 102 -89 163 -181 124z"/>
</g>
</svg>
