<?xml version="1.0" standalone="no"?>
<!DOCTYPE svg PUBLIC "-//W3C//DTD SVG 20010904//EN"
 "http://www.w3.org/TR/2001/REC-SVG-20010904/DTD/svg10.dtd">
<svg version="1.0" xmlns="http://www.w3.org/2000/svg"
 width="788.000000pt" height="788.000000pt" viewBox="0 0 788.000000 788.000000"
 preserveAspectRatio="xMidYMid meet">
<metadata>
Created by potrace 1.11, written by Peter Selinger 2001-2013
</metadata>
<g transform="translate(0.000000,788.000000) scale(0.100000,-0.100000)"
fill="#000000" stroke="none">
<path d="M2680 5889 c-255 -33 -517 -127 -726 -261 -182 -117 -354 -292 -354
-361 0 -42 49 -87 94 -87 31 0 47 12 148 113 258 259 579 396 988 423 107 6
116 9 142 35 38 37 38 81 -1 120 -29 28 -32 29 -128 28 -54 -1 -127 -5 -163
-10z"/>
<path d="M4909 5871 c-39 -39 -39 -83 -1 -120 26 -26 35 -29 142 -35 237 -16
429 -65 625 -160 148 -73 266 -159 379 -277 86 -90 98 -99 131 -99 47 0 95 44
95 88 0 59 -126 196 -288 315 -262 192 -640 316 -965 317 -85 0 -90 -1 -118
-29z"/>
<path d="M3823 5853 c-13 -3 -37 -18 -54 -35 -30 -30 -31 -34 -26 -97 2 -36
36 -239 75 -451 220 -1190 296 -1873 263 -2340 -15 -201 -32 -301 -71 -424
-79 -247 -215 -332 -449 -282 -35 8 -71 12 -80 9 -63 -19 -91 -56 -91 -117 0
-49 39 -92 103 -112 71 -21 238 -29 310 -15 232 49 393 254 465 591 37 174 46
285 46 570 0 351 -25 650 -95 1135 -57 400 -248 1476 -268 1514 -20 37 -81 62
-128 54z"/>
<path d="M5280 5068 c-105 -54 -122 -207 -31 -293 28 -25 41 -30 99 -33 54 -2
73 1 99 17 39 25 62 59 74 108 34 150 -109 269 -241 201z"/>
<path d="M2470 4988 c-51 -35 -70 -69 -77 -130 -22 -211 261 -274 327 -73 24
73 -9 166 -72 205 -47 29 -134 27 -178 -2z"/>
</g>
</svg>
