<?xml version="1.0" standalone="no"?>
<!DOCTYPE svg PUBLIC "-//W3C//DTD SVG 20010904//EN"
 "http://www.w3.org/TR/2001/REC-SVG-20010904/DTD/svg10.dtd">
<svg version="1.0" xmlns="http://www.w3.org/2000/svg"
 width="788.000000pt" height="788.000000pt" viewBox="0 0 788.000000 788.000000"
 preserveAspectRatio="xMidYMid meet">
<metadata>
Created by potrace 1.11, written by Peter Selinger 2001-2013
</metadata>
<g transform="translate(0.000000,788.000000) scale(0.100000,-0.100000)"
fill="#000000" stroke="none">
<path d="M510 7840 c-170 -46 -275 -118 -378 -259 -17 -25 -32 -51 -32 -58 0
-7 -3 -13 -8 -13 -9 0 -47 -113 -61 -179 -11 -49 -9 -6763 1 -6796 3 -11 9
-33 14 -50 10 -44 65 -165 75 -165 4 0 11 -9 14 -20 8 -26 110 -132 158 -164
58 -40 143 -77 221 -97 68 -18 194 -19 3426 -18 3710 0 3410 -6 3555 64 87 42
104 54 185 135 92 92 159 228 174 355 3 22 5 81 5 130 0 50 0 99 1 110 0 11
-1 43 -1 70 0 28 0 55 0 60 0 18 1 159 0 255 0 30 0 60 0 65 0 22 1 167 0 255
0 30 0 60 0 65 0 22 1 167 0 255 0 30 0 60 0 65 0 22 1 167 0 255 0 30 0 60 0
65 0 22 1 167 0 255 0 30 0 60 0 65 0 9 1 87 1 210 0 28 -1 79 -1 115 -1 36
-1 72 -1 80 1 8 1 125 1 260 0 135 0 252 0 260 0 8 0 71 0 140 -1 69 -1 132 0
140 0 8 0 44 0 80 -1 36 -1 72 -1 80 1 8 1 125 1 260 0 135 0 252 0 260 0 8 0
71 0 140 -1 69 -1 132 0 140 0 8 0 44 0 80 -1 36 -1 72 -1 80 1 8 1 125 1 260
0 135 0 252 0 260 0 8 0 71 0 140 -1 69 -1 132 0 140 0 8 0 44 0 80 -1 36 -1
72 -1 80 1 8 1 125 1 260 0 135 0 252 0 260 0 8 0 71 0 140 -1 69 -1 132 0
140 0 8 0 44 0 80 -1 36 -1 72 -1 80 4 93 1 468 -4 510 -21 199 -159 395 -344
488 -47 23 -96 44 -110 47 -14 3 -50 9 -79 15 -37 7 -1187 10 -3400 9 -3170
-1 -3349 -2 -3411 -19z"/>
</g>
</svg>
