<svg width="24" height="24" viewBox="0 0 32 32" fill="none" xmlns="http://www.w3.org/2000/svg">
<path d="M29.693 0H2.30704C1.03138 0 0 1.03138 0 2.30704V29.693C0 30.9686 1.03138 32 2.30704 32H29.693C30.9686 32 32 30.9686 32 29.693V2.30704C32 1.03138 30.9686 0 29.693 0ZM11.3506 24.1886H7.45309V12.4634H11.3506V24.1886ZM9.40186 10.8621H9.37472C8.0665 10.8621 7.21968 9.96098 7.21968 8.83732C7.21968 7.68651 8.08821 6.81255 9.42358 6.81255C10.7589 6.81255 11.5786 7.68651 11.6003 8.83732C11.6058 9.96641 10.7644 10.8621 9.40186 10.8621ZM25.3992 24.1886H21.5016V17.9135C21.5016 16.3393 20.9371 15.2645 19.5311 15.2645C18.4563 15.2645 17.8158 15.9919 17.5281 16.6867C17.4249 16.9364 17.4032 17.2892 17.4032 17.6366V24.1832H13.5057C13.5057 24.1832 13.5545 13.56 13.5057 12.458H17.4032V14.1191C17.9189 13.3211 18.8472 12.1812 20.9153 12.1812C23.4775 12.1812 25.3992 13.8585 25.3992 17.4575V24.1886Z" fill="#242424"/>
</svg>
