<svg width="46" height="46" viewBox="0 0 46 46" fill="none" xmlns="http://www.w3.org/2000/svg">
<circle cx="23" cy="23" r="16" fill="#FFC800"/>
<path d="M27.7822 16.4597C29.3058 16.3482 30.8419 17.0183 31.655 18.1704L31.655 18.1704C31.7859 18.3556 32.0116 18.3549 32.1605 18.2776C32.2363 18.2382 32.3041 18.174 32.3352 18.0895C32.3679 18.0008 32.3555 17.9021 32.291 17.8106L32.291 17.8106C31.3373 16.4599 29.5468 15.643 27.7688 15.773L27.7687 15.773C27.5898 15.7861 27.4021 15.9054 27.4021 16.1163C27.4021 16.2103 27.4486 16.2991 27.5147 16.3613C27.5817 16.4243 27.6765 16.4675 27.7822 16.4597ZM27.7822 16.4597L27.7755 16.3679L27.7822 16.4597Z" fill="#242424" stroke="#242424" stroke-width="0.18416"/>
<path d="M18.4326 16.4597C16.909 16.3482 15.3729 17.0183 14.5599 18.1704L14.5598 18.1704C14.4289 18.3556 14.2033 18.3549 14.0544 18.2776C13.9785 18.2382 13.9107 18.174 13.8796 18.0895C13.847 18.0008 13.8594 17.9021 13.9239 17.8106L13.9239 17.8106C14.8775 16.4599 16.6681 15.643 18.4461 15.773L18.4461 15.773C18.6251 15.7861 18.8128 15.9054 18.8128 16.1163C18.8128 16.2103 18.7662 16.2991 18.7001 16.3613C18.6332 16.4243 18.5384 16.4675 18.4326 16.4597ZM18.4326 16.4597L18.4394 16.3679L18.4326 16.4597Z" fill="#242424" stroke="#242424" stroke-width="0.18416"/>
<path d="M28.2692 20.9758C29.3005 20.9758 29.3019 19.4268 28.2692 19.4268C27.2365 19.4268 27.2351 20.9758 28.2692 20.9758Z" fill="#242424"/>
<path d="M17.5778 20.9758C18.6091 20.9758 18.6105 19.4268 17.5778 19.4268C16.5451 19.4268 16.5437 20.9758 17.5778 20.9758Z" fill="#242424"/>
<path d="M21.7304 32.4704C23.0489 32.9843 24.3688 32.1503 24.8673 30.8893C25.0363 30.4624 25.0971 30.0008 25.1399 29.5585L25.1399 29.5583C25.3283 27.5886 25.0389 25.5542 24.7603 23.6243C24.453 21.4915 24.0454 19.3769 23.6013 17.2723M21.7304 32.4704C21.4713 32.3698 21.4052 32.105 21.4585 31.9041C21.4854 31.8024 21.5447 31.706 21.6364 31.6476C21.7312 31.587 21.8505 31.574 21.9783 31.6239C22.5668 31.8534 23.0693 31.7175 23.4534 31.3937C23.8417 31.0664 24.1109 30.5444 24.2106 30.007C24.3431 29.2916 24.3326 28.5404 24.3082 27.8052C24.1911 24.3422 23.4763 20.8839 22.7632 17.4984C22.7047 17.2211 22.887 17.0242 23.0878 16.967C23.1884 16.9384 23.301 16.9418 23.3985 16.9915C23.4985 17.0425 23.5731 17.1376 23.6013 17.2723M21.7304 32.4704C21.7304 32.4704 21.7304 32.4704 21.7303 32.4704L21.7638 32.3846L21.7305 32.4704C21.7304 32.4704 21.7304 32.4704 21.7304 32.4704ZM23.6013 17.2723C23.6013 17.2724 23.6013 17.2724 23.6013 17.2724L23.5112 17.2913L23.6013 17.2723C23.6013 17.2723 23.6013 17.2723 23.6013 17.2723Z" fill="#242424" stroke="#242424" stroke-width="0.18416"/>
</svg>
