<svg width="46" height="46" viewBox="0 0 46 46" fill="none" xmlns="http://www.w3.org/2000/svg">
<circle cx="23" cy="23" r="23" fill="#FFC800"/>
<path d="M35.7229 15.6225L35.7228 15.6224C34.5276 13.9288 32.2686 12.9429 30.0272 13.1069L35.7229 15.6225ZM35.7229 15.6225C35.9212 15.903 36.2625 15.901 36.4862 15.7848C36.6003 15.7255 36.7032 15.6285 36.7506 15.4999C36.8005 15.3644 36.7812 15.214 36.6836 15.0757L36.6836 15.0757M35.7229 15.6225L36.6836 15.0757M36.6836 15.0757C35.2749 13.0803 32.6307 11.8744 30.0053 12.0663L30.0053 12.0663M36.6836 15.0757L30.0053 12.0663M30.0053 12.0663C29.7373 12.0859 29.4516 12.2653 29.4516 12.5866M30.0053 12.0663L29.4516 12.5866M29.4516 12.5866C29.4516 12.7298 29.5224 12.8641 29.6221 12.958M29.4516 12.5866L29.6221 12.958M29.6221 12.958C29.7232 13.0531 29.8667 13.1187 30.0272 13.1069L29.6221 12.958Z" fill="#242424" stroke="#242424" stroke-width="0.3"/>
<path d="M10.5486 15.6225L10.5487 15.6224C11.7439 13.9288 14.0029 12.9429 16.2443 13.1069L10.5486 15.6225ZM10.5486 15.6225C10.3503 15.903 10.009 15.901 9.7853 15.7848C9.67117 15.7255 9.5683 15.6285 9.5209 15.4999C9.471 15.3644 9.49027 15.214 9.58788 15.0757L9.58789 15.0757M10.5486 15.6225L9.58789 15.0757M9.58789 15.0757C10.9966 13.0803 13.6408 11.8744 16.2662 12.0663L16.2662 12.0663M9.58789 15.0757L16.2662 12.0663M16.2662 12.0663C16.5342 12.0859 16.8199 12.2653 16.8199 12.5866M16.2662 12.0663L16.8199 12.5866M16.8199 12.5866C16.8199 12.7298 16.7491 12.8641 16.6494 12.958M16.8199 12.5866L16.6494 12.958M16.6494 12.958C16.5483 13.0531 16.4048 13.1187 16.2443 13.1069L16.6494 12.958Z" fill="#242424" stroke="#242424" stroke-width="0.3"/>
<path d="M30.9586 20.1779C32.7641 20.1779 32.7666 17.4658 30.9586 17.4658C29.1505 17.4658 29.148 20.1779 30.9586 20.1779Z" fill="#242424"/>
<path d="M15.1988 20.1779C17.0044 20.1779 17.0069 17.4658 15.1988 17.4658C13.3907 17.4658 13.3882 20.1779 15.1988 20.1779Z" fill="#242424"/>
<path d="M26.1966 32.4055L26.1966 32.4058C26.1333 33.0584 26.0432 33.7465 25.7906 34.3848C25.0467 36.2666 23.0691 37.5255 21.0836 36.7516C20.6631 36.5882 20.5598 36.1589 20.6441 35.8405C20.687 35.6787 20.7824 35.5213 20.9339 35.4247C21.0924 35.3235 21.2899 35.3038 21.4957 35.3841L26.1966 32.4055ZM26.1966 32.4055C26.4751 29.4932 26.0471 26.487 25.6367 23.6436L26.1966 32.4055ZM24.8424 29.8176C24.67 24.7197 23.6178 19.6276 22.5665 14.6367C22.4718 14.188 22.769 13.8698 23.0902 13.7784C23.2513 13.7325 23.4344 13.7371 23.5949 13.819C23.7611 13.9037 23.8824 14.0609 23.9276 14.277L24.8424 29.8176ZM24.8424 29.8176C24.8784 30.9013 24.8935 32.0021 24.6996 33.0489L24.8424 29.8176ZM24.6996 33.049C24.5548 33.8296 24.164 34.5846 23.6053 35.0556C23.0556 35.5189 22.3395 35.7132 21.4957 35.3842L24.6996 33.049Z" fill="#242424" stroke="#242424" stroke-width="0.4"/>
</svg>
