<svg width="196" height="196" viewBox="0 0 196 196" fill="none" xmlns="http://www.w3.org/2000/svg">
<path d="M97.9947 183.212C145.059 183.212 183.212 145.059 183.212 97.9947C183.212 50.9305 145.059 12.7773 97.9947 12.7773C50.9305 12.7773 12.7773 50.9305 12.7773 97.9947C12.7773 145.059 50.9305 183.212 97.9947 183.212Z" fill="#FFC800"/>
<path d="M122.011 62.0905C131.361 61.3195 140.813 65.9455 145.836 73.9654C146.998 75.8172 149.93 74.11 148.761 72.2444C143.137 63.2677 132.543 57.8087 122.011 58.6761C121.096 58.7518 120.316 59.4058 120.316 60.3833C120.316 61.2507 121.096 62.1662 122.011 62.0905Z" fill="#242424"/>
<path d="M52.9181 72.8849C55.3922 69.6425 58.3515 66.9853 62.0216 65.2436C66.3956 63.1716 71.4326 62.5933 76.2304 62.4006C78.4037 62.3111 78.4174 58.8966 76.2304 58.9861C70.7902 59.2064 65.2816 59.9361 60.3062 62.2973C56.1098 64.2868 52.7883 67.4947 49.9862 71.1639C49.4257 71.8936 49.8768 73.0776 50.5944 73.4976C51.4692 74.0139 52.3577 73.6215 52.9181 72.8849Z" fill="#242424"/>
<path d="M131.166 83.4675C136.074 83.4675 136.081 75.7813 131.166 75.7813C126.25 75.7813 126.243 83.4675 131.166 83.4675Z" fill="#242424"/>
<path d="M69.4964 85.0769C74.4048 85.0769 74.4117 77.3906 69.4964 77.3906C64.588 77.3906 64.5811 85.0769 69.4964 85.0769Z" fill="#242424"/>
<path d="M97.9067 62.0934C101.793 80.6664 105.699 99.6869 106.339 118.742C106.472 122.776 106.532 126.947 105.799 130.933C104.679 137.012 99.7397 142.849 92.9542 140.185C90.7146 139.304 89.7481 143.022 91.9677 143.889C98.8265 146.581 105.772 142.237 108.418 135.497C109.311 133.226 109.638 130.754 109.871 128.331C110.891 117.592 109.325 106.488 107.805 95.8869C106.132 84.1979 103.912 72.6053 101.493 61.0608C100.993 58.6514 97.4001 59.6771 97.9067 62.0934Z" fill="#242424"/>
</svg>
