<svg width="197" height="196" viewBox="0 0 197 196" fill="none" xmlns="http://www.w3.org/2000/svg">
<rect x="0.511719" width="196" height="196" rx="16" fill="#FFC800"/>
<path d="M98.5104 183.216C145.575 183.216 183.728 145.063 183.728 97.9986C183.728 50.9344 145.575 12.7812 98.5104 12.7812C51.4461 12.7812 13.293 50.9344 13.293 97.9986C13.293 145.063 51.4461 183.216 98.5104 183.216Z" fill="#FFC800"/>
<path fill-rule="evenodd" clip-rule="evenodd" d="M72.6989 53.5149C56.938 53.5149 47.0265 62.0914 44.1878 66.0757C43.4605 67.0963 42.0436 67.3342 41.0229 66.607C40.0023 65.8798 39.7644 64.4629 40.4916 63.4422C44.0715 58.4177 55.2899 48.9766 72.6989 48.9766C73.9522 48.9766 74.9681 49.9925 74.9681 51.2458C74.9681 52.499 73.9522 53.5149 72.6989 53.5149ZM99.0554 52.5012C98.7766 50.9597 97.301 49.936 95.7594 50.2147C94.2179 50.4935 93.1942 51.9691 93.4729 53.5107C93.8904 55.8193 94.341 58.2568 94.8099 60.7932L94.8099 60.7933L94.8099 60.7934L94.8099 60.7935C97.8366 77.1663 101.625 97.6589 102.175 114.198C102.496 123.829 101.685 131.578 99.364 136.338C98.2414 138.64 96.8669 140.034 95.2799 140.739C93.6902 141.446 91.4748 141.646 88.314 140.752C86.8066 140.325 85.239 141.201 84.8126 142.709C84.3862 144.216 85.2625 145.784 86.7699 146.21C90.8033 147.351 94.4491 147.317 97.5844 145.923C100.722 144.528 102.937 141.955 104.463 138.825C107.44 132.72 108.169 123.745 107.845 114.009C107.279 97.0022 103.397 76.0174 100.377 59.6949L100.376 59.6925L100.376 59.6896L100.375 59.6878C99.9098 57.1708 99.4647 54.7647 99.0554 52.5012ZM133.937 78.0713C139.506 78.0713 139.514 69.3506 133.937 69.3506C128.36 69.3506 128.352 78.0713 133.937 78.0713ZM63.969 79.8968C69.5381 79.8968 69.5458 71.176 63.969 71.176C58.3999 71.176 58.3921 79.8968 63.969 79.8968ZM152.839 66.0757C150 62.0914 140.088 53.5149 124.327 53.5149C123.074 53.5149 122.058 52.499 122.058 51.2458C122.058 49.9925 123.074 48.9766 124.327 48.9766C141.736 48.9766 152.955 58.4177 156.535 63.4422C157.262 64.4629 157.024 65.8798 156.003 66.607C154.983 67.3342 153.566 67.0963 152.839 66.0757Z" fill="#242424"/>
</svg>
