<?xml version="1.0" encoding="utf-8"?>
<!-- Generator: Adobe Illustrator 26.5.0, SVG Export Plug-In . SVG Version: 6.00 Build 0)  -->
<svg version="1.1" id="Layer_1" xmlns="http://www.w3.org/2000/svg" xmlns:xlink="http://www.w3.org/1999/xlink" x="0px" y="0px"
	 viewBox="0 0 140 140" style="enable-background:new 0 0 140 140;" xml:space="preserve">
<style type="text/css">
	.st0{fill:#FFFFFF;}
	.st1{fill:#F9AB00;}
	.st2{fill:#E37400;}
</style>
<g>
	<path class="st0" d="M0,32C0,14.3,14.3,0,32,0h76c17.7,0,32,14.3,32,32v76c0,17.7-14.3,32-32,32H32c-17.7,0-32-14.3-32-32V32z"/>
	<g>
		<path class="st1" d="M108,96.9c0,3.1-1.3,6-3.6,8.1c-2.3,2.1-5.4,3-8.4,2.7c-5.5-0.8-9.6-5.6-9.4-11.2V32.4
			C86.4,26.8,90.5,22,96,21.2c3.1-0.4,6.1,0.6,8.4,2.7c2.3,2.1,3.6,5,3.6,8.1V96.9z"/>
		<path class="st2" d="M40.5,86.3c5.9,0,10.7,4.8,10.7,10.7c0,5.9-4.8,10.7-10.7,10.7S29.7,103,29.7,97
			C29.7,91.1,34.6,86.3,40.5,86.3z M68.7,53.8c-6,0.3-10.6,5.3-10.4,11.3v28.8c0,7.8,3.4,12.6,8.5,13.6c3.2,0.6,6.5-0.2,9-2.2
			c2.5-2,3.9-5.1,3.9-8.3V64.6c0-2.9-1.1-5.7-3.2-7.7C74.4,54.9,71.6,53.7,68.7,53.8L68.7,53.8z"/>
	</g>
</g>
</svg>
