<svg width="140" height="140" viewBox="0 0 140 140" fill="none" xmlns="http://www.w3.org/2000/svg">
<path d="M0 32C0 14.3269 14.3269 0 32 0H108C125.673 0 140 14.3269 140 32V108C140 125.673 125.673 140 108 140H32C14.3269 140 0 125.673 0 108V32Z" fill="white"/>
<path d="M65.6077 64.9003C72.0984 61.2977 80.988 56.3627 80.988 42H70.2238C70.2238 50.036 66.3079 52.2094 60.3802 55.4996C53.8895 59.1034 45 64.0363 45 78.4003H55.7641C55.7641 70.3639 59.68 68.1904 65.6077 64.9003Z" fill="#FF3C00"/>
<path d="M84.2368 61.5996C84.2368 69.636 80.3209 71.8095 74.3932 75.0992C67.9042 78.7017 59.0129 83.6359 59.0129 97.9999H69.7766C69.7766 89.9635 73.6926 87.7901 79.6202 84.4999C86.1109 80.8973 95 75.9636 95 61.5996H84.2368Z" fill="#FF3C00"/>
</svg>
