<svg width="140" height="140" viewBox="0 0 140 140" fill="none" xmlns="http://www.w3.org/2000/svg">
<g clip-path="url(#clip0_7110_55121)">
<mask id="mask0_7110_55121" style="mask-type:luminance" maskUnits="userSpaceOnUse" x="0" y="0" width="140" height="140">
<path d="M140 0H0V140H140V0Z" fill="white"/>
</mask>
<g mask="url(#mask0_7110_55121)">
<path d="M0 32C0 14.3269 14.3269 0 32 0H108C125.673 0 140 14.3269 140 32V108C140 125.673 125.673 140 108 140H32C14.3269 140 0 125.673 0 108V32Z" fill="white"/>
<g clip-path="url(#clip1_7110_55121)">
<path d="M70 42C85.4737 42 98 54.5263 98 70C98 85.4737 85.4737 98 70 98C54.5263 98 42 85.4737 42 70C42 54.5263 54.5263 42 70 42ZM76.5263 51.2632C75.3684 50.8947 74.1053 51.3684 73.4737 52.3684C72.3684 52.1579 71.2632 52.0526 70.1053 52.0526C60.1579 52.0526 52.1579 60.1053 52.1579 70C52.1579 76.9474 56.1053 83 61.8947 85.9474C61.7368 87.1053 62.4737 88.2632 63.6316 88.6842C63.8947 88.7895 64.2105 88.8421 64.4737 88.8421C64.8947 88.8421 65.3158 88.7368 65.6842 88.5263C66.1053 88.3158 66.4211 88 66.6842 87.5789C66.7895 87.4211 66.8947 87.2632 66.9474 87.0526L69 81L76.1579 60.6316L78.2105 54.5789C78.2632 54.4211 78.3158 54.2105 78.3158 54C78.3684 53.4211 78.2105 52.8947 77.9474 52.4211C77.6316 51.8947 77.1579 51.4737 76.5263 51.2632ZM81.6316 56.3684L79.1579 63.8421C80.3684 65.5789 81.0526 67.7368 81.0526 70C81.0526 74.8421 78 78.8947 73.7368 80.4211L71.2632 87.8947C80.5789 87.2105 87.8947 79.4737 87.9474 70C87.9474 64.5263 85.4737 59.6316 81.6316 56.3684ZM70 58.9474C70.3158 58.9474 70.6842 58.9474 71 59L64.0526 79.3158C61 77.3158 58.9474 73.8947 58.9474 70C58.9474 63.8947 63.8947 58.9474 70 58.9474Z" fill="#303030"/>
</g>
</g>
</g>
<defs>
<clipPath id="clip0_7110_55121">
<rect width="140" height="140" fill="white"/>
</clipPath>
<clipPath id="clip1_7110_55121">
<rect width="56" height="56" fill="white" transform="translate(42 42)"/>
</clipPath>
</defs>
</svg>
