<svg width="56" height="56" viewBox="0 0 56 56" fill="none" xmlns="http://www.w3.org/2000/svg">
<g clip-path="url(#clip0_2449_36970)">
<path d="M56 28C56 30.9942 55.7593 33.9302 55.2995 36.793C53.7773 46.2703 46.2702 53.7774 36.7929 55.2995C33.9301 55.7593 30.994 56 28 56C25.006 56 22.0699 55.7593 19.2071 55.2995C9.72982 53.7774 2.22267 46.2703 0.700498 36.793C0.240699 33.9302 0 30.9942 0 28C0 25.0058 0.240699 22.0698 0.700498 19.207C2.22268 9.72974 9.72983 2.22264 19.2071 0.700504C22.0699 0.240699 25.006 0 28 0C30.994 0 33.9301 0.240699 36.7929 0.700504C46.2702 2.22264 53.7773 9.72974 55.2995 19.207C55.7593 22.0698 56 25.0058 56 28Z" fill="url(#paint0_linear_2449_36970)"/>
<path d="M16.7227 32.2879H9.77688C9.28955 32.2879 8.85415 31.997 8.66766 31.5467C8.48118 31.0965 8.58335 30.5829 8.92795 30.2383L13.7391 25.4273H10.2908C9.34359 25.4273 8.57568 24.6594 8.57568 23.7121H14.9812C15.4685 23.7121 15.9039 24.003 16.0904 24.4532C16.277 24.9034 16.1748 25.417 15.8303 25.7617L11.0192 30.5727H15.0075C15.9548 30.5727 16.7227 31.3406 16.7227 32.2879ZM47.4241 26.928C47.4241 25.0838 45.9237 23.5835 44.0795 23.5835C43.093 23.5835 42.2052 24.013 41.5925 24.6946C40.9798 24.013 40.092 23.5835 39.1056 23.5835C37.2614 23.5835 35.761 25.0838 35.761 26.928V32.2879C36.7082 32.2879 37.4761 31.52 37.4761 30.5728V26.928C37.4761 26.0296 38.2071 25.2986 39.1056 25.2986C40.004 25.2986 40.735 26.0296 40.735 26.928V30.5728C40.735 31.52 41.5029 32.2879 42.4501 32.2879V26.928C42.4501 26.0296 43.1811 25.2986 44.0795 25.2986C44.978 25.2986 45.7089 26.0296 45.7089 26.928V30.5728C45.7089 31.52 46.4768 32.2879 47.4241 32.2879V26.928ZM34.9034 28C34.9034 30.4392 32.9261 32.4165 30.4869 32.4165C28.0477 32.4165 26.0703 30.4392 26.0703 28C26.0703 25.5608 28.0477 23.5835 30.4869 23.5835C32.9261 23.5835 34.9034 25.5608 34.9034 28ZM33.1882 28C33.1882 26.5081 31.9788 25.2986 30.4869 25.2986C28.9949 25.2986 27.7855 26.5081 27.7855 28C27.7855 29.4919 28.9949 30.7014 30.4869 30.7014C31.9788 30.7014 33.1882 29.4919 33.1882 28ZM25.3843 28C25.3843 30.4392 23.4069 32.4165 20.9677 32.4165C18.5285 32.4165 16.5512 30.4392 16.5512 28C16.5512 25.5608 18.5285 23.5835 20.9677 23.5835C23.4069 23.5835 25.3843 25.5608 25.3843 28ZM23.6691 28C23.6691 26.5081 22.4597 25.2986 20.9677 25.2986C19.4758 25.2986 18.2663 26.5081 18.2663 28C18.2663 29.4919 19.4758 30.7014 20.9677 30.7014C22.4597 30.7014 23.6691 29.4919 23.6691 28Z" fill="white"/>
</g>
<defs>
<linearGradient id="paint0_linear_2449_36970" x1="13.253" y1="53.5426" x2="42.747" y2="2.45741" gradientUnits="userSpaceOnUse">
<stop stop-color="#0845BF"/>
<stop offset="0.6" stop-color="#0B5CFF"/>
<stop offset="1" stop-color="#4F90EE"/>
</linearGradient>
<clipPath id="clip0_2449_36970">
<rect width="56" height="56" fill="white"/>
</clipPath>
</defs>
</svg>
