<svg width="38" height="56" viewBox="0 0 38 56" fill="none" xmlns="http://www.w3.org/2000/svg">
<g clip-path="url(#clip0_2379_25931)">
<path d="M19 28.0001C19 25.5248 19.9833 23.1508 21.7337 21.4004C23.484 19.6501 25.858 18.6668 28.3333 18.6668C30.8087 18.6668 33.1827 19.6501 34.933 21.4004C36.6833 23.1508 37.6667 25.5248 37.6667 28.0001C37.6667 30.4755 36.6833 32.8494 34.933 34.5998C33.1827 36.3501 30.8087 37.3334 28.3333 37.3334C25.858 37.3334 23.484 36.3501 21.7337 34.5998C19.9833 32.8494 19 30.4755 19 28.0001Z" fill="#1ABCFE"/>
<path d="M0.333496 46.6673C0.333496 44.1919 1.31683 41.8179 3.06717 40.0676C4.81751 38.3173 7.19147 37.3339 9.66683 37.3339H19.0002V46.6673C19.0002 49.1426 18.0168 51.5166 16.2665 53.2669C14.5162 55.0173 12.1422 56.0006 9.66683 56.0006C7.19147 56.0006 4.81751 55.0173 3.06717 53.2669C1.31683 51.5166 0.333496 49.1426 0.333496 46.6673H0.333496Z" fill="#0ACF83"/>
<path d="M19 -0.000366211V18.6663H28.3333C30.8087 18.6663 33.1827 17.683 34.933 15.9326C36.6833 14.1823 37.6667 11.8083 37.6667 9.33297C37.6667 6.85761 36.6833 4.48364 34.933 2.7333C33.1827 0.982964 30.8087 -0.000366211 28.3333 -0.000366211L19 -0.000366211Z" fill="#FF7262"/>
<path d="M0.333496 9.33309C0.333496 11.8084 1.31683 14.1824 3.06717 15.9328C4.81751 17.6831 7.19147 18.6664 9.66683 18.6664H19.0002V-0.000244141H9.66683C7.19147 -0.000244141 4.81751 0.983086 3.06717 2.73343C1.31683 4.48377 0.333496 6.85773 0.333496 9.33309H0.333496Z" fill="#F24E1E"/>
<path d="M0.333496 28.0001C0.333496 30.4755 1.31683 32.8494 3.06717 34.5998C4.81751 36.3501 7.19147 37.3334 9.66683 37.3334H19.0002V18.6668H9.66683C7.19147 18.6668 4.81751 19.6501 3.06717 21.4004C1.31683 23.1508 0.333496 25.5248 0.333496 28.0001H0.333496Z" fill="#A259FF"/>
</g>
<defs>
<clipPath id="clip0_2379_25931">
<rect width="37.3333" height="56" fill="white" transform="translate(0.333496)"/>
</clipPath>
</defs>
</svg>
