<svg width="56" height="56" viewBox="0 0 56 56" fill="none" xmlns="http://www.w3.org/2000/svg">
<g clip-path="url(#clip0_2379_25939)">
<path d="M3.36952 2.41537L34.356 0.126648C38.1623 -0.199832 39.1401 0.020248 41.5335 1.76017L51.4248 8.72825C53.0561 9.92665 53.5993 10.2531 53.5993 11.5579V49.774C53.5993 52.1691 52.7296 53.5859 49.6849 53.8021L13.7015 55.9816C11.4167 56.0897 10.3286 55.7632 9.13192 54.2383L1.848 44.7665C0.54152 43.0232 0 41.7184 0 40.193V6.22337C0 4.26505 0.86968 2.63209 3.36952 2.41537Z" fill="white"/>
<path fill-rule="evenodd" clip-rule="evenodd" d="M34.356 0.127208L3.36952 2.41593C0.86968 2.63209 0 4.26561 0 6.22337V40.193C0 41.7178 0.54152 43.0226 1.848 44.7665L9.13192 54.2378C10.3286 55.7626 11.4167 56.0897 13.7015 55.981L49.6854 53.8026C52.7279 53.5859 53.5998 52.1691 53.5998 49.7746V11.5585C53.5998 10.3209 53.111 9.96417 51.6718 8.90801L41.5335 1.76017C39.1406 0.020248 38.1623 -0.199832 34.356 0.126648V0.127208ZM14.5152 10.933C11.5769 11.1306 10.9105 11.1754 9.24168 9.81857L4.99912 6.44401C4.56792 6.00721 4.78464 5.46233 5.87104 5.35369L35.6591 3.17697C38.1606 2.95857 39.4632 3.83049 40.4415 4.59209L45.5504 8.29369C45.7688 8.40401 46.312 9.05529 45.6585 9.05529L14.896 10.9072L14.5152 10.933ZM11.0897 49.4481V17.0056C11.0897 15.5888 11.5248 14.9353 12.8274 14.8255L48.16 12.7569C49.3584 12.6488 49.8999 13.4104 49.8999 14.825V47.0513C49.8999 48.4681 49.6815 49.6665 47.7254 49.7746L13.9143 51.7346C11.9582 51.8426 11.0902 51.1914 11.0902 49.4481H11.0897ZM44.4657 18.745C44.6824 19.725 44.4657 20.705 43.4857 20.817L41.8561 21.1401V45.093C40.441 45.8546 39.1384 46.2897 38.0498 46.2897C36.3098 46.2897 35.8753 45.7448 34.5722 44.113L23.9154 27.3466V43.5681L27.2866 44.3314C27.2866 44.3314 27.2866 46.2914 24.5666 46.2914L17.0682 46.7265C16.8498 46.2897 17.0682 45.2016 17.8282 44.9849L19.7865 44.4417V22.9937L17.0688 22.7736C16.8504 21.7936 17.3936 20.3785 18.9168 20.2687L26.9623 19.7272L38.0503 36.7103V21.6855L35.224 21.3607C35.0056 20.1606 35.8753 19.2887 36.9617 19.1823L44.4657 18.745Z" fill="black"/>
</g>
<defs>
<clipPath id="clip0_2379_25939">
<rect width="56" height="56" fill="white"/>
</clipPath>
</defs>
</svg>
