<svg width="135" height="135" viewBox="0 0 135 135" fill="none" xmlns="http://www.w3.org/2000/svg">
<path d="M67.2 14C37.8 14 14 37.8 14 67.2C14 96.6 37.8 120.4 67.2 120.4C96.6 120.4 120.4 96.6 120.4 67.2C120.4 37.8 96.6 14 67.2 14ZM65.3 88.1L61.4 99.6C61.3 100 61.1 100.3 60.9 100.6C60.4 101.4 59.8 102 59 102.4C58.3 102.8 57.5 103 56.7 103C56.2 103 55.6 102.9 55.1 102.7C52.9 101.9 51.5 99.7 51.8 97.5C40.8 91.9 33.3 80.4 33.3 67.2C33.3 48.4 48.5 33.1 67.4 33.1C69.6 33.1 71.7 33.3 73.8 33.7C75 31.8 77.4 30.9 79.6 31.6C80.8 32 81.7 32.8 82.3 33.8C82.8 34.7 83.1 35.7 83 36.8C83 37.2 82.9 37.6 82.8 37.9L78.9 49.4L65.3 88.1ZM69.6 101.2L74.3 87C82.4 84.1 88.2 76.4 88.2 67.2C88.2 62.9 86.9 58.8 84.6 55.5L89.3 41.3C96.6 47.5 101.3 56.8 101.3 67.2C101.2 85.2 87.3 99.9 69.6 101.2Z" fill="#303030"/>
<path d="M46.2002 67.2002C46.2002 74.6002 50.1002 81.1002 55.9002 84.9002L69.1002 46.3002C68.5002 46.2002 67.8002 46.2002 67.2002 46.2002C55.6002 46.2002 46.2002 55.6002 46.2002 67.2002Z" fill="#303030"/>
</svg>
