<svg width="36" height="22" viewBox="0 0 36 22" fill="none" xmlns="http://www.w3.org/2000/svg">
<path d="M14.5416 9.62733C15.5271 9.92782 16.3647 10.3285 17.0237 10.9942C18.2124 12.1962 18.545 13.675 18.4896 15.2541C18.3787 18.6066 16.0136 20.4154 12.8663 20.9515C12.1334 21.0752 11.382 21.1342 10.6367 21.1342C7.22461 21.1636 3.81248 21.1518 0.400341 21.1518C0.271 21.1518 0.147818 21.1342 0 21.1224V0.0412435C0.129341 0.0235679 0.252523 0 0.375704 0C4.12659 0.0176756 7.88363 0.0117837 11.6345 0.0707025C13.0265 0.0883781 14.3876 0.359405 15.564 1.13713C17.0853 2.14464 17.5041 3.62351 17.498 5.29091C17.4918 7.19988 16.6049 8.58447 14.8311 9.45646C14.7633 9.49182 14.7017 9.53306 14.5416 9.62733ZM4.88416 11.8073V17.5048C6.97209 17.5048 9.02307 17.599 11.0556 17.4753C12.737 17.3751 13.5377 16.4973 13.6177 14.9123C13.6978 13.3863 13.1004 11.99 11.1726 11.8486C9.10313 11.6895 7.00288 11.8073 4.88416 11.8073ZM4.87184 3.54691V8.54912C5.12436 8.54912 5.34609 8.55501 5.56782 8.54912C7.23693 8.52555 8.91836 8.57858 10.5813 8.44895C11.9979 8.33701 12.7863 7.35307 12.7739 6.03918C12.7616 4.74885 12.0102 3.82972 10.5998 3.72367C8.70895 3.57048 6.81195 3.59405 4.87184 3.54691Z" fill="#242424"/>
<path d="M35.9884 14.5301H24.4648C24.3169 16.6099 25.5056 18.1065 27.5135 18.3421C28.8685 18.5012 30.1434 18.3127 31.172 17.3405C31.2952 17.2227 31.4492 17.099 31.5046 16.9458C31.6894 16.4567 32.0528 16.3978 32.5393 16.4155C33.5556 16.4509 34.578 16.4273 35.662 16.4273C35.0338 18.3245 34.0237 19.8387 32.1944 20.746C29.6815 21.9951 25.0376 21.9892 22.4199 19.5559C21.0465 18.2773 20.3012 16.716 20.061 14.919C19.7407 12.5504 20.1472 10.3351 21.6685 8.37898C24.5572 4.66709 30.9318 4.3018 33.9929 7.88406C35.274 9.38649 35.8406 11.1423 35.9823 13.0453C36.0192 13.5167 35.9884 13.9939 35.9884 14.5301ZM31.4984 11.8081C31.3753 9.63395 29.9587 8.5086 27.9878 8.55573C25.9245 8.60287 24.3231 10.0641 24.4524 11.8081H31.4984Z" fill="#242424"/>
<path d="M32.4837 1.4082H23.5469V3.42323H32.4837V1.4082Z" fill="#242424"/>
</svg>
