<svg width="301" height="364" viewBox="0 0 301 364" fill="none" xmlns="http://www.w3.org/2000/svg">
<path d="M208.464 220.741C245.016 225.419 273.907 232.334 300.295 289.828C299.178 295.233 297.417 300.408 295.125 305.354C255.794 390.23 84.5422 380.765 64.9131 289.301C88.6623 231.807 126.53 224.36 163.077 219.687C168.123 227.688 175.673 231.846 185.77 232.334C196.127 232.334 202.52 228.211 208.464 220.741Z" fill="#242424"/>
<path fill-rule="evenodd" clip-rule="evenodd" d="M185.731 233.97L185.691 233.968C175.486 233.475 167.621 229.359 162.268 221.44C144.338 223.759 126.391 226.825 110.002 236.11C93.4536 245.484 78.3497 261.288 66.6206 289.454C76.4463 333.815 123.043 358.664 172.735 361.823C222.596 364.992 274.383 346.225 293.641 304.666C295.81 299.986 297.489 295.105 298.582 290.021C285.54 261.763 271.97 246.087 257.319 236.863C242.803 227.724 227.048 224.797 209.161 222.48C206.275 225.985 203.197 228.807 199.55 230.778C195.641 232.89 191.179 233.97 185.77 233.97H185.731ZM208.464 220.741C245.016 225.419 273.907 232.334 300.295 289.828C299.178 295.233 297.417 300.408 295.125 305.354C255.794 390.23 84.5422 380.765 64.9131 289.301C88.6623 231.807 126.53 224.36 163.077 219.687C168.123 227.688 175.673 231.846 185.77 232.334C196.127 232.334 202.52 228.211 208.464 220.741Z" fill="#242424"/>
<path d="M166.172 199.559C169.167 208.397 181.344 216.303 205.217 210.999C204.129 205.158 206.93 204.702 205.846 198.866C191.067 205.201 166.172 199.559 166.172 199.559Z" fill="#242424"/>
<path d="M164.632 199.916C165.016 203.434 165.38 206.981 165.016 210.51C164.656 213.956 163.416 217.267 161.831 220.512C161.259 221.685 163.809 222.19 164.377 221.024C165.967 217.772 167.169 214.457 167.599 211.011C168.058 207.32 167.675 203.604 167.273 199.919C167.136 198.684 164.495 198.673 164.632 199.916Z" fill="#242424"/>
<path d="M247.517 108.217C245.696 108.25 243.898 109.262 243.103 110.948C242.223 112.804 242.564 114.889 243.86 116.446C244.929 117.733 246.751 118.469 247.513 120.008C247.763 120.511 247.801 121.057 247.456 121.527C247.11 122.002 246.491 122.335 245.909 122.202C244.437 121.869 243.808 124.144 245.284 124.471C247.021 124.861 248.851 123.997 249.656 122.392C250.574 120.559 249.708 118.621 248.35 117.292C247.215 116.18 245.242 115.292 244.967 113.564C244.717 111.973 245.942 110.601 247.513 110.577C249.027 110.549 249.031 108.193 247.517 108.217Z" fill="#242424"/>
<path d="M119.316 122.235C117.769 122.207 116.529 120.867 116.761 119.291C117.021 117.534 119.008 116.641 120.153 115.516C121.492 114.205 122.358 112.31 121.492 110.492C120.707 108.844 118.852 107.937 117.083 108.336C115.611 108.668 116.231 110.938 117.707 110.606C118.289 110.473 118.909 110.805 119.254 111.28C119.595 111.75 119.562 112.301 119.311 112.8C118.54 114.338 116.728 115.069 115.659 116.361C114.372 117.909 114.012 120.013 114.902 121.86C115.711 123.541 117.485 124.557 119.316 124.59C120.825 124.614 120.825 122.259 119.316 122.235Z" fill="#242424"/>
<path d="M199.623 88.0779C206.096 87.546 212.639 90.7371 216.116 96.2692C216.92 97.5465 218.95 96.3689 218.141 95.082C214.247 88.8899 206.914 85.1242 199.623 85.7226C198.99 85.7748 198.45 86.2259 198.45 86.9002C198.45 87.4985 198.99 88.1301 199.623 88.0779Z" fill="#242424"/>
<path d="M151.781 95.5328C153.494 93.2962 155.542 91.4633 158.083 90.2619C161.111 88.8325 164.597 88.4337 167.919 88.3007C169.423 88.239 169.433 85.8837 167.919 85.9454C164.153 86.0974 160.339 86.6007 156.895 88.2295C153.99 89.6018 151.691 91.8147 149.751 94.3456C149.364 94.849 149.676 95.6658 150.173 95.9554C150.778 96.3116 151.393 96.0409 151.781 95.5328Z" fill="#242424"/>
<path d="M246.386 99.0079C246.357 99.0697 246.329 99.1314 246.301 99.1836C246.159 99.4828 246.017 99.7772 245.87 100.072C245.605 100.632 245.321 101.183 245.042 101.724C245.009 101.791 244.967 101.852 244.919 101.9C242.631 103.42 229.425 88.675 228.37 66.9503C228.209 63.6263 225.711 59.8274 222.698 58.4456C195.849 46.1705 170.661 47.9749 140.056 58.4456C136.21 59.7657 133.854 63.6548 134.474 67.691C135.94 77.2404 128.766 107.638 118.31 102.742C117.521 102.496 116.682 102.496 116.682 102.496C116.45 101.902 116.183 101.283 115.829 100.181C114.977 97.5311 113.685 93.4521 111.514 88.1574C109.787 83.9597 108.221 79.7002 106.982 75.3315C106.759 74.5432 106.542 73.755 106.338 72.962C103.471 62.0307 100.935 33.525 126.44 32.015C126.44 20.5804 127.325 -7.19407 217.375 1.74275C261.913 6.17318 262.159 65.5732 246.386 99.0079Z" fill="#242424"/>
<path d="M172.077 162.368C177.736 166.001 184.998 166.894 191.413 164.942C193.235 164.387 194.99 163.603 196.608 162.606C197.895 161.818 196.717 159.776 195.425 160.573C188.721 164.686 179.879 164.581 173.265 160.336C171.987 159.515 170.809 161.552 172.077 162.368Z" fill="#242424"/>
<path d="M205.946 102.832C209.344 102.832 209.349 97.5321 205.946 97.5321C202.544 97.5321 202.539 102.832 205.946 102.832Z" fill="#242424"/>
<path d="M163.284 103.943C166.682 103.943 166.687 98.6433 163.284 98.6433C159.887 98.6433 159.882 103.943 163.284 103.943Z" fill="#242424"/>
<path d="M182.919 88.082C185.609 100.894 188.313 114.014 188.755 127.158C188.848 129.941 188.889 132.818 188.382 135.568C187.607 139.761 184.188 143.788 179.49 141.95C177.94 141.342 177.271 143.906 178.807 144.505C183.555 146.361 188.363 143.365 190.195 138.716C190.813 137.149 191.039 135.444 191.201 133.773C191.907 126.365 190.823 118.706 189.771 111.393C188.612 103.33 187.076 95.333 185.401 87.3697C185.055 85.7077 182.568 86.4152 182.919 88.082Z" fill="#242424"/>
<path d="M257.339 122.965C255.451 129.546 250.995 135.292 244.192 136.698C242.072 146.732 238.462 156.647 234.129 165.897C228.068 178.87 219.368 192.194 206.566 199.294C206.362 199.403 206.164 199.517 205.955 199.621C205.331 199.954 204.702 200.272 204.058 200.576C203.964 200.623 203.864 200.666 203.765 200.709C192.505 205.889 179.381 205.22 167.856 200.761C167.36 200.571 166.868 200.371 166.376 200.167C166.144 200.072 165.917 199.973 165.685 199.868C162.165 198.339 158.82 196.449 155.75 194.27C143.312 185.428 134.564 172.203 128.485 158.37C125.443 151.447 122.741 144.153 121.152 136.722C117.405 136.028 114.069 134.2 111.538 131.265C106.817 125.79 105.005 117.741 106.481 110.704C107.564 105.547 111.128 101.299 115.841 100.131C116.285 101.145 116.62 101.877 116.852 102.471C111.061 103.743 108.335 110.742 108.671 116.815C109.097 124.703 113.786 133.203 122.254 134.248C122.812 134.314 123.408 134.599 123.531 135.216C125.291 143.916 128.542 152.515 132.35 160.493C138.846 174.093 148.147 187.052 161.356 194.74C175.587 203.026 194.08 204.626 208.141 195.219C220.768 186.772 228.835 172.417 234.446 158.627C237.511 151.091 240.175 143.213 241.802 135.216C241.93 134.599 242.526 134.319 243.08 134.248C257.708 132.305 261.682 100.333 244.773 101.995C244.726 102 244.684 102 244.636 101.995C244.684 101.943 244.721 101.886 244.759 101.819C245.043 101.278 245.322 100.727 245.587 100.167C245.739 99.8725 245.88 99.5781 246.018 99.279C246.046 99.222 246.074 99.165 246.103 99.1033C246.098 99.165 246.098 99.2172 246.098 99.279C249.282 99.2885 252.3 100.476 254.463 102.95C259.085 108.216 259.175 116.559 257.339 122.965Z" fill="#242424"/>
<path d="M192.338 185.183C190.871 184.115 189.059 183.602 187.276 183.407C185.558 183.222 183.709 183.364 182.091 184.001C181.225 184.338 180.416 184.794 179.754 185.463C178.963 186.266 180.193 187.5 180.988 186.703C181.097 186.593 181.215 186.489 181.334 186.384C181.447 186.285 181.239 186.446 181.4 186.332C181.476 186.28 181.551 186.228 181.627 186.176C181.764 186.085 181.911 186 182.058 185.924C182.133 185.886 182.209 185.848 182.285 185.81C182.341 185.781 182.573 185.682 182.417 185.748C182.762 185.606 183.117 185.487 183.477 185.392C183.657 185.345 183.841 185.302 184.026 185.269C184.12 185.25 184.21 185.231 184.305 185.216C184.362 185.207 184.636 185.164 184.48 185.188C185.294 185.079 186.121 185.064 186.935 185.131C187.134 185.145 187.337 185.169 187.536 185.193C187.38 185.174 187.645 185.212 187.687 185.216C187.801 185.235 187.915 185.254 188.023 185.278C188.425 185.354 188.823 185.454 189.216 185.577C189.428 185.644 189.637 185.715 189.845 185.796C189.897 185.815 189.949 185.838 189.996 185.857C189.911 185.824 189.958 185.838 190.015 185.867C190.114 185.91 190.214 185.957 190.308 186.005C190.711 186.204 191.099 186.432 191.463 186.698C191.846 186.978 192.433 186.764 192.655 186.384C192.91 185.938 192.721 185.463 192.338 185.183Z" fill="#242424"/>
<path d="M204.74 198.83C203.387 206.586 204.967 214.2 207.39 221.761C207.768 222.941 210.314 222.442 209.935 221.261C207.56 213.853 206.055 206.427 207.38 198.83C207.593 197.629 204.948 197.639 204.74 198.83Z" fill="#242424"/>
<path d="M31.9759 194.124C27.0811 181.02 25.4661 177.184 23.6653 167.838C23.2617 165.743 21.3114 164.367 19.3092 164.764C17.307 165.161 16.0111 167.181 16.4147 169.276C18.2736 178.924 18.037 182.058 22.5352 197.006C22.5478 197.048 22.5545 197.093 22.5541 197.137V197.137C22.5391 198.655 21.34 199.794 20.022 199.04C19.4649 198.721 18.8356 198.269 18.1557 197.63C13.7559 192.332 13.6895 192.012 9.81163 183.125C8.96125 181.177 6.76645 180.298 4.90942 181.164C3.05239 182.029 2.23635 184.31 3.08673 186.259C4.01046 188.376 4.63563 190.286 5.14824 192.108C9.00379 205.812 14.6812 219.329 21.5541 231.798C23.6787 235.652 25.8835 238.955 27.7504 240.795C30.9657 243.964 31.6569 271.383 34.4118 303.43M31.9759 194.124C31.4573 192.843 32.4725 195.454 31.9759 194.124ZM31.9759 194.124C31.9759 194.124 33.0038 196.869 32.6222 194.221C30.559 179.904 31.5243 171.839 31.6172 162.638C31.6388 160.506 33.3119 158.816 35.3542 158.863C37.3966 158.91 39.0348 160.676 39.0133 162.808C38.9237 171.675 39.4251 180.286 41.4192 194.124C41.7393 179.088 42.8602 181.209 42.4411 169.963C42.5101 168.062 42.579 166.167 42.6407 164.264C42.7098 162.134 44.4206 160.486 46.4619 160.583C48.5032 160.679 50.102 162.484 50.0329 164.614C51.0041 178.18 51.5672 192.158 53.1025 205.67C53.3142 207.532 55.0722 208.834 56.8702 208.303C61.0469 207.071 64.8003 204.98 71.1607 201.401C72.9499 200.394 78.3647 199.561 80.3505 203.35C81.3355 205.229 80.7462 206.025 78.957 207.032C71.5644 211.191 66.8538 219.603 63.6725 226.523C61.1881 231.927 58.9551 238.391 53.5145 240.795V240.795C53.098 240.979 59.1963 266.735 68.721 299.074" stroke="#242424" stroke-width="1.8" stroke-linecap="round" stroke-linejoin="round"/>
</svg>
