<svg width="24" height="24" viewBox="0 0 24 24" fill="none" xmlns="http://www.w3.org/2000/svg">
<path fill-rule="evenodd" clip-rule="evenodd" d="M12 4C7.58544 4 4 7.58228 4 12C4 16.4177 7.58228 20 12 20C16.4082 20 20 16.4177 20 12C20 7.58228 16.4082 4 12 4ZM17.2848 7.68671C18.2405 8.8481 18.8101 10.3354 18.8291 11.9399C18.6044 11.8956 16.3481 11.4367 14.0759 11.7215C14.0253 11.6076 13.981 11.4873 13.9272 11.3671C13.788 11.038 13.6329 10.6994 13.4747 10.3797C15.9937 9.35127 17.1392 7.87658 17.2848 7.68671ZM12 5.17722C13.7373 5.17722 15.3228 5.82911 16.5285 6.89557C16.4051 7.06962 15.3734 8.4462 12.9462 9.35759C11.8259 7.30063 10.5854 5.61709 10.3956 5.3576C10.9082 5.24051 11.4462 5.17722 12 5.17722ZM9.09494 5.81962C9.27848 6.06329 10.4905 7.75316 11.6297 9.76582C8.43671 10.6171 5.61709 10.6013 5.31329 10.6013C5.75633 8.48418 7.18671 6.72468 9.09494 5.81962ZM5.16455 12.0063V11.8006C5.45886 11.8101 8.77532 11.8513 12.1835 10.8291C12.3829 11.212 12.5665 11.6013 12.7373 11.9937C12.6487 12.019 12.557 12.0443 12.4684 12.0728C8.9462 13.2089 7.07278 16.3133 6.91456 16.5759C5.83228 15.3639 5.16455 13.7595 5.16455 12.0063ZM12 18.8354C10.4209 18.8354 8.96519 18.2975 7.81012 17.3956C7.93038 17.1424 9.31962 14.4715 13.1709 13.1266C13.1899 13.1171 13.1962 13.1171 13.2152 13.1076C14.1804 15.5981 14.5696 17.6899 14.6741 18.288C13.8513 18.6456 12.9462 18.8354 12 18.8354ZM15.8101 17.6646C15.7405 17.2468 15.3766 15.2532 14.4842 12.7975C16.6266 12.4589 18.5 13.0158 18.7342 13.0918C18.4399 14.9905 17.3449 16.6297 15.8101 17.6646Z" fill="#242424"/>
</svg>
