<svg width="24" height="24" viewBox="0 0 24 24" fill="none" xmlns="http://www.w3.org/2000/svg">
<path d="M17.6332 17.6331H15.2624V13.9203C15.2624 13.035 15.2466 11.8953 14.0294 11.8953C12.7946 11.8953 12.6057 12.8599 12.6057 13.8559V17.6328H10.2349V9.99793H12.5108V11.0413H12.5427C12.7705 10.6519 13.0996 10.3315 13.4951 10.1143C13.8905 9.89714 14.3374 9.79129 14.7883 9.80802C17.1912 9.80802 17.6342 11.3885 17.6342 13.4447L17.6332 17.6331ZM7.55987 8.95429C7.28776 8.95434 7.02175 8.8737 6.79547 8.72257C6.5692 8.57143 6.39283 8.35659 6.28866 8.10522C6.18448 7.85385 6.15718 7.57722 6.21022 7.31034C6.26325 7.04345 6.39425 6.79828 6.58662 6.60584C6.77899 6.4134 7.02411 6.28232 7.29098 6.22919C7.55785 6.17606 7.83448 6.20325 8.08589 6.30734C8.3373 6.41142 8.5522 6.58772 8.70341 6.81394C8.85463 7.04016 8.93537 7.30615 8.93542 7.57825C8.93545 7.75892 8.89989 7.93783 8.83078 8.10476C8.76167 8.2717 8.66037 8.42338 8.53264 8.55116C8.40491 8.67893 8.25325 8.7803 8.08634 8.84947C7.91943 8.91864 7.74054 8.95426 7.55987 8.95429V8.95429ZM8.74526 17.6331H6.37201V9.99793H8.74526V17.6331ZM18.8151 4.00109H5.1807C4.87124 3.9976 4.57303 4.11711 4.35164 4.33336C4.13025 4.54961 4.00378 4.84492 4 5.15438V18.8454C4.00365 19.155 4.13004 19.4505 4.35143 19.667C4.57281 19.8835 4.87108 20.0032 5.1807 19.9999H18.8151C19.1254 20.0038 19.4245 19.8844 19.6467 19.6679C19.869 19.4515 19.9962 19.1556 20.0005 18.8454V5.15339C19.9961 4.84331 19.8688 4.54768 19.6465 4.33143C19.4242 4.11518 19.1252 3.99601 18.8151 4.0001" fill="#242424"/>
</svg>
