<svg width="24" height="24" viewBox="0 0 24 24" fill="none" xmlns="http://www.w3.org/2000/svg">
<path fill-rule="evenodd" clip-rule="evenodd" d="M18.6761 7.71655H5.32385L12 12.3064L18.6761 7.71655ZM4.5 8.97045V16.2166C4.5 16.4927 4.72386 16.7166 5 16.7166H19C19.2761 16.7166 19.5 16.4927 19.5 16.2166V8.97045L12.4249 13.8346L12 14.1267L11.5751 13.8346L4.5 8.97045ZM19 6.21655H5C3.89543 6.21655 3 7.11198 3 8.21655V16.2166C3 17.3211 3.89543 18.2166 5 18.2166H19C20.1046 18.2166 21 17.3211 21 16.2166V8.21655C21 7.11198 20.1046 6.21655 19 6.21655Z" fill="#242424"/>
</svg>
