<svg width="148" height="21" viewBox="0 0 148 21" fill="none" xmlns="http://www.w3.org/2000/svg">
<path d="M33.526 15.9896C32.77 15.9896 32.0373 15.8823 31.328 15.6676C30.628 15.4529 30.0727 15.1683 29.662 14.8136L30.292 13.3996C30.6933 13.7169 31.1833 13.9783 31.762 14.1836C32.35 14.3796 32.938 14.4776 33.526 14.4776C34.254 14.4776 34.7953 14.3609 35.15 14.1276C35.514 13.8943 35.696 13.5863 35.696 13.2036C35.696 12.9236 35.5933 12.6949 35.388 12.5176C35.192 12.3309 34.94 12.1863 34.632 12.0836C34.324 11.9809 33.904 11.8643 33.372 11.7336C32.6253 11.5563 32.0187 11.3789 31.552 11.2016C31.0947 11.0243 30.698 10.7489 30.362 10.3756C30.0353 9.99294 29.872 9.47961 29.872 8.83561C29.872 8.29428 30.0167 7.80428 30.306 7.36561C30.6047 6.91761 31.048 6.56294 31.636 6.30161C32.2333 6.04028 32.9613 5.90961 33.82 5.90961C34.4173 5.90961 35.0053 5.98428 35.584 6.13361C36.1627 6.28294 36.662 6.49761 37.082 6.77761L36.508 8.19161C36.0787 7.93961 35.6307 7.74828 35.164 7.61761C34.6973 7.48694 34.2447 7.42161 33.806 7.42161C33.0873 7.42161 32.5507 7.54294 32.196 7.78561C31.8507 8.02828 31.678 8.35028 31.678 8.75161C31.678 9.03161 31.776 9.26028 31.972 9.43761C32.1773 9.61494 32.434 9.75494 32.742 9.85761C33.05 9.96028 33.47 10.0769 34.002 10.2076C34.73 10.3756 35.3273 10.5529 35.794 10.7396C36.2607 10.9169 36.6573 11.1923 36.984 11.5656C37.32 11.9389 37.488 12.4429 37.488 13.0776C37.488 13.6189 37.3387 14.1089 37.04 14.5476C36.7507 14.9863 36.3073 15.3363 35.71 15.5976C35.1127 15.8589 34.3847 15.9896 33.526 15.9896ZM43.6537 15.4436C43.4483 15.6116 43.1963 15.7376 42.8977 15.8216C42.6083 15.9056 42.3003 15.9476 41.9737 15.9476C41.1523 15.9476 40.5177 15.7329 40.0697 15.3036C39.6217 14.8743 39.3977 14.2489 39.3977 13.4276V9.82961H38.1657V8.42961H39.3977V6.72161H41.1477V8.42961H43.1497V9.82961H41.1477V13.3856C41.1477 13.7496 41.2363 14.0296 41.4137 14.2256C41.591 14.4123 41.8477 14.5056 42.1837 14.5056C42.5757 14.5056 42.9023 14.4029 43.1637 14.1976L43.6537 15.4436ZM51.9102 12.1536C51.9102 12.2749 51.9008 12.4476 51.8822 12.6716H46.0162C46.1188 13.2223 46.3848 13.6609 46.8142 13.9876C47.2528 14.3049 47.7942 14.4636 48.4382 14.4636C49.2595 14.4636 49.9362 14.1929 50.4682 13.6516L51.4062 14.7296C51.0702 15.1309 50.6455 15.4343 50.1322 15.6396C49.6188 15.8449 49.0402 15.9476 48.3962 15.9476C47.5748 15.9476 46.8515 15.7843 46.2262 15.4576C45.6008 15.1309 45.1155 14.6783 44.7702 14.0996C44.4342 13.5116 44.2662 12.8489 44.2662 12.1116C44.2662 11.3836 44.4295 10.7303 44.7562 10.1516C45.0922 9.56361 45.5542 9.10628 46.1422 8.77961C46.7302 8.45294 47.3928 8.28961 48.1302 8.28961C48.8582 8.28961 49.5068 8.45294 50.0762 8.77961C50.6548 9.09694 51.1028 9.54961 51.4202 10.1376C51.7468 10.7163 51.9102 11.3883 51.9102 12.1536ZM48.1302 9.68961C47.5702 9.68961 47.0942 9.85761 46.7022 10.1936C46.3195 10.5203 46.0862 10.9589 46.0022 11.5096H50.2442C50.1695 10.9683 49.9408 10.5296 49.5582 10.1936C49.1755 9.85761 48.6995 9.68961 48.1302 9.68961ZM57.7702 8.28961C58.4982 8.28961 59.1468 8.44828 59.7162 8.76561C60.2948 9.08294 60.7475 9.53094 61.0742 10.1096C61.4008 10.6883 61.5642 11.3556 61.5642 12.1116C61.5642 12.8676 61.4008 13.5396 61.0742 14.1276C60.7475 14.7063 60.2948 15.1543 59.7162 15.4716C59.1468 15.7889 58.4982 15.9476 57.7702 15.9476C56.7622 15.9476 55.9642 15.6116 55.3762 14.9396V18.5656H53.6262V8.37361H55.2922V9.35361C55.5815 8.99894 55.9362 8.73294 56.3562 8.55561C56.7855 8.37828 57.2568 8.28961 57.7702 8.28961ZM57.5742 14.4496C58.2182 14.4496 58.7455 14.2349 59.1562 13.8056C59.5762 13.3763 59.7862 12.8116 59.7862 12.1116C59.7862 11.4116 59.5762 10.8469 59.1562 10.4176C58.7455 9.98828 58.2182 9.77361 57.5742 9.77361C57.1542 9.77361 56.7762 9.87161 56.4402 10.0676C56.1042 10.2543 55.8382 10.5249 55.6422 10.8796C55.4462 11.2343 55.3482 11.6449 55.3482 12.1116C55.3482 12.5783 55.4462 12.9889 55.6422 13.3436C55.8382 13.6983 56.1042 13.9736 56.4402 14.1696C56.7762 14.3563 57.1542 14.4496 57.5742 14.4496ZM67.5008 8.28961C68.4435 8.28961 69.1995 8.56494 69.7688 9.11561C70.3382 9.66628 70.6228 10.4829 70.6228 11.5656V15.8496H68.8728V11.7896C68.8728 11.1363 68.7188 10.6463 68.4108 10.3196C68.1028 9.98361 67.6642 9.81561 67.0948 9.81561C66.4508 9.81561 65.9422 10.0116 65.5688 10.4036C65.1955 10.7863 65.0088 11.3416 65.0088 12.0696V15.8496H63.2588V5.46161H65.0088V9.24161C65.2982 8.93361 65.6528 8.70028 66.0728 8.54161C66.5022 8.37361 66.9782 8.28961 67.5008 8.28961ZM75.7338 8.28961C76.8351 8.28961 77.6751 8.55561 78.2538 9.08761C78.8418 9.61028 79.1358 10.4036 79.1358 11.4676V15.8496H77.4838V14.9396C77.2691 15.2663 76.9611 15.5183 76.5598 15.6956C76.1678 15.8636 75.6918 15.9476 75.1318 15.9476C74.5718 15.9476 74.0818 15.8543 73.6618 15.6676C73.2418 15.4716 72.9151 15.2056 72.6818 14.8696C72.4578 14.5243 72.3458 14.1369 72.3458 13.7076C72.3458 13.0356 72.5931 12.4989 73.0878 12.0976C73.5918 11.6869 74.3805 11.4816 75.4538 11.4816H77.3858V11.3696C77.3858 10.8469 77.2271 10.4456 76.9098 10.1656C76.6018 9.88561 76.1398 9.74561 75.5238 9.74561C75.1038 9.74561 74.6885 9.81094 74.2778 9.94161C73.8765 10.0723 73.5358 10.2543 73.2558 10.4876L72.5698 9.21361C72.9618 8.91494 73.4331 8.68628 73.9838 8.52761C74.5345 8.36894 75.1178 8.28961 75.7338 8.28961ZM75.4958 14.6736C75.9345 14.6736 76.3218 14.5756 76.6578 14.3796C77.0031 14.1743 77.2458 13.8849 77.3858 13.5116V12.6436H75.5798C74.5718 12.6436 74.0678 12.9749 74.0678 13.6376C74.0678 13.9549 74.1938 14.2069 74.4458 14.3936C74.6978 14.5803 75.0478 14.6736 75.4958 14.6736ZM85.6587 8.28961C86.6014 8.28961 87.3574 8.56494 87.9267 9.11561C88.496 9.66628 88.7807 10.4829 88.7807 11.5656V15.8496H87.0307V11.7896C87.0307 11.1363 86.8767 10.6463 86.5687 10.3196C86.2607 9.98361 85.822 9.81561 85.2527 9.81561C84.6087 9.81561 84.1 10.0116 83.7267 10.4036C83.3534 10.7863 83.1667 11.3416 83.1667 12.0696V15.8496H81.4167V8.37361H83.0827V9.33961C83.372 8.99428 83.736 8.73294 84.1747 8.55561C84.6134 8.37828 85.108 8.28961 85.6587 8.28961ZM104.11 15.8496L104.096 9.35361L100.876 14.7296H100.064L96.8438 9.43761V15.8496H95.1078V6.04961H96.6058L100.498 12.5456L104.32 6.04961H105.818L105.832 15.8496H104.11ZM115.374 12.1536C115.374 12.2749 115.365 12.4476 115.346 12.6716H109.48C109.583 13.2223 109.849 13.6609 110.278 13.9876C110.717 14.3049 111.258 14.4636 111.902 14.4636C112.723 14.4636 113.4 14.1929 113.932 13.6516L114.87 14.7296C114.534 15.1309 114.109 15.4343 113.596 15.6396C113.083 15.8449 112.504 15.9476 111.86 15.9476C111.039 15.9476 110.315 15.7843 109.69 15.4576C109.065 15.1309 108.579 14.6783 108.234 14.0996C107.898 13.5116 107.73 12.8489 107.73 12.1116C107.73 11.3836 107.893 10.7303 108.22 10.1516C108.556 9.56361 109.018 9.10628 109.606 8.77961C110.194 8.45294 110.857 8.28961 111.594 8.28961C112.322 8.28961 112.971 8.45294 113.54 8.77961C114.119 9.09694 114.567 9.54961 114.884 10.1376C115.211 10.7163 115.374 11.3883 115.374 12.1536ZM111.594 9.68961C111.034 9.68961 110.558 9.85761 110.166 10.1936C109.783 10.5203 109.55 10.9589 109.466 11.5096H113.708C113.633 10.9683 113.405 10.5296 113.022 10.1936C112.639 9.85761 112.163 9.68961 111.594 9.68961ZM124.412 5.46161V15.8496H122.732V14.8836C122.443 15.2383 122.083 15.5043 121.654 15.6816C121.234 15.8589 120.767 15.9476 120.254 15.9476C119.535 15.9476 118.887 15.7889 118.308 15.4716C117.739 15.1543 117.291 14.7063 116.964 14.1276C116.637 13.5396 116.474 12.8676 116.474 12.1116C116.474 11.3556 116.637 10.6883 116.964 10.1096C117.291 9.53094 117.739 9.08294 118.308 8.76561C118.887 8.44828 119.535 8.28961 120.254 8.28961C120.749 8.28961 121.201 8.37361 121.612 8.54161C122.023 8.70961 122.373 8.96161 122.662 9.29761V5.46161H124.412ZM120.464 14.4496C120.884 14.4496 121.262 14.3563 121.598 14.1696C121.934 13.9736 122.2 13.6983 122.396 13.3436C122.592 12.9889 122.69 12.5783 122.69 12.1116C122.69 11.6449 122.592 11.2343 122.396 10.8796C122.2 10.5249 121.934 10.2543 121.598 10.0676C121.262 9.87161 120.884 9.77361 120.464 9.77361C120.044 9.77361 119.666 9.87161 119.33 10.0676C118.994 10.2543 118.728 10.5249 118.532 10.8796C118.336 11.2343 118.238 11.6449 118.238 12.1116C118.238 12.5783 118.336 12.9889 118.532 13.3436C118.728 13.6983 118.994 13.9736 119.33 14.1696C119.666 14.3563 120.044 14.4496 120.464 14.4496ZM126.736 8.37361H128.486V15.8496H126.736V8.37361ZM127.618 7.14161C127.301 7.14161 127.035 7.04361 126.82 6.84761C126.606 6.64228 126.498 6.39028 126.498 6.09161C126.498 5.79294 126.606 5.54561 126.82 5.34961C127.035 5.14428 127.301 5.04161 127.618 5.04161C127.936 5.04161 128.202 5.13961 128.416 5.33561C128.631 5.52228 128.738 5.76028 128.738 6.04961C128.738 6.35761 128.631 6.61894 128.416 6.83361C128.211 7.03894 127.945 7.14161 127.618 7.14161ZM135.06 8.28961C136.003 8.28961 136.759 8.56494 137.328 9.11561C137.897 9.66628 138.182 10.4829 138.182 11.5656V15.8496H136.432V11.7896C136.432 11.1363 136.278 10.6463 135.97 10.3196C135.662 9.98361 135.223 9.81561 134.654 9.81561C134.01 9.81561 133.501 10.0116 133.128 10.4036C132.755 10.7863 132.568 11.3416 132.568 12.0696V15.8496H130.818V8.37361H132.484V9.33961C132.773 8.99428 133.137 8.73294 133.576 8.55561C134.015 8.37828 134.509 8.28961 135.06 8.28961ZM143.293 8.28961C144.394 8.28961 145.234 8.55561 145.813 9.08761C146.401 9.61028 146.695 10.4036 146.695 11.4676V15.8496H145.043V14.9396C144.828 15.2663 144.52 15.5183 144.119 15.6956C143.727 15.8636 143.251 15.9476 142.691 15.9476C142.131 15.9476 141.641 15.8543 141.221 15.6676C140.801 15.4716 140.474 15.2056 140.241 14.8696C140.017 14.5243 139.905 14.1369 139.905 13.7076C139.905 13.0356 140.152 12.4989 140.647 12.0976C141.151 11.6869 141.94 11.4816 143.013 11.4816H144.945V11.3696C144.945 10.8469 144.786 10.4456 144.469 10.1656C144.161 9.88561 143.699 9.74561 143.083 9.74561C142.663 9.74561 142.248 9.81094 141.837 9.94161C141.436 10.0723 141.095 10.2543 140.815 10.4876L140.129 9.21361C140.521 8.91494 140.992 8.68628 141.543 8.52761C142.094 8.36894 142.677 8.28961 143.293 8.28961ZM143.055 14.6736C143.494 14.6736 143.881 14.5756 144.217 14.3796C144.562 14.1743 144.805 13.8849 144.945 13.5116V12.6436H143.139C142.131 12.6436 141.627 12.9749 141.627 13.6376C141.627 13.9549 141.753 14.2069 142.005 14.3936C142.257 14.5803 142.607 14.6736 143.055 14.6736Z" fill="#242424"/>
<circle cx="10.2852" cy="10.3496" r="9.59139" fill="#FFC800" stroke="#242424" stroke-width="0.817217"/>
<path d="M15.7728 7.17412L15.7728 7.17404C15.266 6.45607 14.3043 6.03447 13.3475 6.10449L15.7728 7.17412ZM15.7728 7.17412C15.8805 7.32647 16.0637 7.32189 16.178 7.26251C16.237 7.23185 16.2936 7.17998 16.3203 7.10754C16.349 7.02955 16.3366 6.94447 16.2842 6.87019L16.2842 6.87018M15.7728 7.17412L16.2842 6.87018M16.2842 6.87018C15.6593 5.985 14.4896 5.45283 13.3296 5.53762L13.3295 5.53762M16.2842 6.87018L13.3295 5.53762M13.3295 5.53762C13.1962 5.5474 13.0356 5.63971 13.0356 5.82106M13.3295 5.53762L13.0356 5.82106M13.0356 5.82106C13.0356 5.90205 13.0752 5.97485 13.1278 6.02432M13.0356 5.82106L13.1278 6.02432M13.1278 6.02432C13.1815 6.07484 13.2592 6.11097 13.3475 6.10449L13.1278 6.02432Z" fill="#242424" stroke="#242424" stroke-width="0.245165"/>
<path d="M4.92055 7.17412L4.92061 7.17404C5.42731 6.45607 6.38905 6.03447 7.34588 6.10449L4.92055 7.17412ZM4.92055 7.17412C4.81285 7.32647 4.62971 7.32189 4.5154 7.26251C4.45638 7.23185 4.39975 7.17998 4.37306 7.10754C4.34432 7.02955 4.35671 6.94447 4.40914 6.87019L4.40915 6.87018M4.92055 7.17412L4.40915 6.87018M4.40915 6.87018C5.03409 5.985 6.20377 5.45283 7.36379 5.53762L7.36383 5.53762M4.40915 6.87018L7.36383 5.53762M7.36383 5.53762C7.49712 5.5474 7.65774 5.63971 7.65774 5.82106M7.36383 5.53762L7.65774 5.82106M7.65774 5.82106C7.65774 5.90205 7.61811 5.97485 7.56554 6.02432M7.65774 5.82106L7.56554 6.02432M7.56554 6.02432C7.51184 6.07484 7.43421 6.11097 7.34591 6.10449L7.56554 6.02432Z" fill="#242424" stroke="#242424" stroke-width="0.245165"/>
<path d="M13.7482 9.12156C14.5332 9.12156 14.5343 7.94238 13.7482 7.94238C12.9621 7.94238 12.961 9.12156 13.7482 9.12156Z" fill="#242424"/>
<path d="M6.89469 9.12156C7.67971 9.12156 7.68081 7.94238 6.89469 7.94238C6.10857 7.94238 6.10747 9.12156 6.89469 9.12156Z" fill="#242424"/>
<path d="M11.67 14.4371L11.6699 14.4372C11.6424 14.7209 11.6033 15.0194 11.4937 15.2962C11.1711 16.1125 10.3139 16.6574 9.45413 16.3223C9.27436 16.2525 9.22988 16.069 9.26609 15.9324C9.28447 15.863 9.3253 15.7958 9.38983 15.7546C9.45725 15.7116 9.54136 15.7031 9.62943 15.7375M11.67 14.4371L9.59968 15.8136M11.67 14.4371C11.7909 13.1716 11.605 11.8652 11.4266 10.6288M11.67 14.4371L11.1098 14.7332M9.62943 15.7375L9.59968 15.8136M9.62943 15.7375C9.62941 15.7375 9.62939 15.7375 9.62937 15.7375L9.59968 15.8136M9.62943 15.7375C9.9982 15.8813 10.3115 15.7963 10.5519 15.5938C10.7959 15.3881 10.9663 15.0586 11.0294 14.7183M9.59968 15.8136C10.3974 16.1247 10.9781 15.443 11.1098 14.7332M11.0294 14.7183C11.0294 14.7183 11.0294 14.7183 11.0294 14.7183L11.1098 14.7332M11.0294 14.7183L11.1098 14.7332M11.0294 14.7183C11.1138 14.2625 11.1073 13.7834 11.0916 13.3122C11.0166 11.0952 10.559 8.88079 10.102 6.71089C10.0615 6.51908 10.1884 6.38302 10.326 6.34383C10.395 6.32418 10.4732 6.32623 10.5416 6.36111C10.6123 6.39717 10.6642 6.46414 10.6835 6.55667M10.6835 6.55667C10.9682 7.90565 11.2295 9.26132 11.4266 10.6288M10.6835 6.55667C10.6835 6.5567 10.6835 6.55672 10.6835 6.55675L10.6035 6.57346L10.6835 6.55659C10.6835 6.55662 10.6835 6.55664 10.6835 6.55667ZM11.4266 10.6288L11.3457 10.6405L11.4266 10.6288Z" fill="#242424" stroke="#242424" stroke-width="0.163443"/>
</svg>
