<svg width="227" height="24" viewBox="0 0 227 24" fill="none" xmlns="http://www.w3.org/2000/svg">
<path d="M38.8501 18.14C38.0941 18.14 37.3614 18.0327 36.6521 17.818C35.9521 17.6033 35.3968 17.3187 34.9861 16.964L35.6161 15.55C36.0174 15.8673 36.5074 16.1287 37.0861 16.334C37.6741 16.53 38.2621 16.628 38.8501 16.628C39.5781 16.628 40.1194 16.5113 40.4741 16.278C40.8381 16.0447 41.0201 15.7367 41.0201 15.354C41.0201 15.074 40.9174 14.8453 40.7121 14.668C40.5161 14.4813 40.2641 14.3367 39.9561 14.234C39.6481 14.1313 39.2281 14.0147 38.6961 13.884C37.9494 13.7067 37.3428 13.5293 36.8761 13.352C36.4188 13.1747 36.0221 12.8993 35.6861 12.526C35.3594 12.1433 35.1961 11.63 35.1961 10.986C35.1961 10.4447 35.3408 9.95467 35.6301 9.516C35.9288 9.068 36.3721 8.71333 36.9601 8.452C37.5574 8.19067 38.2854 8.06 39.1441 8.06C39.7414 8.06 40.3294 8.13467 40.9081 8.284C41.4868 8.43333 41.9861 8.648 42.4061 8.928L41.8321 10.342C41.4028 10.09 40.9548 9.89867 40.4881 9.768C40.0214 9.63733 39.5688 9.572 39.1301 9.572C38.4114 9.572 37.8748 9.69333 37.5201 9.936C37.1748 10.1787 37.0021 10.5007 37.0021 10.902C37.0021 11.182 37.1001 11.4107 37.2961 11.588C37.5014 11.7653 37.7581 11.9053 38.0661 12.008C38.3741 12.1107 38.7941 12.2273 39.3261 12.358C40.0541 12.526 40.6514 12.7033 41.1181 12.89C41.5848 13.0673 41.9814 13.3427 42.3081 13.716C42.6441 14.0893 42.8121 14.5933 42.8121 15.228C42.8121 15.7693 42.6628 16.2593 42.3641 16.698C42.0748 17.1367 41.6314 17.4867 41.0341 17.748C40.4368 18.0093 39.7088 18.14 38.8501 18.14ZM48.9778 17.594C48.7724 17.762 48.5204 17.888 48.2218 17.972C47.9324 18.056 47.6244 18.098 47.2978 18.098C46.4764 18.098 45.8418 17.8833 45.3938 17.454C44.9458 17.0247 44.7218 16.3993 44.7218 15.578V11.98H43.4898V10.58H44.7218V8.872H46.4718V10.58H48.4738V11.98H46.4718V15.536C46.4718 15.9 46.5604 16.18 46.7378 16.376C46.9151 16.5627 47.1718 16.656 47.5078 16.656C47.8998 16.656 48.2264 16.5533 48.4878 16.348L48.9778 17.594ZM57.2343 14.304C57.2343 14.4253 57.2249 14.598 57.2063 14.822H51.3403C51.4429 15.3727 51.7089 15.8113 52.1383 16.138C52.5769 16.4553 53.1183 16.614 53.7623 16.614C54.5836 16.614 55.2603 16.3433 55.7923 15.802L56.7303 16.88C56.3943 17.2813 55.9696 17.5847 55.4563 17.79C54.9429 17.9953 54.3643 18.098 53.7203 18.098C52.8989 18.098 52.1756 17.9347 51.5503 17.608C50.9249 17.2813 50.4396 16.8287 50.0943 16.25C49.7583 15.662 49.5903 14.9993 49.5903 14.262C49.5903 13.534 49.7536 12.8807 50.0803 12.302C50.4163 11.714 50.8783 11.2567 51.4663 10.93C52.0543 10.6033 52.7169 10.44 53.4543 10.44C54.1823 10.44 54.8309 10.6033 55.4003 10.93C55.9789 11.2473 56.4269 11.7 56.7443 12.288C57.0709 12.8667 57.2343 13.5387 57.2343 14.304ZM53.4543 11.84C52.8943 11.84 52.4183 12.008 52.0263 12.344C51.6436 12.6707 51.4103 13.1093 51.3263 13.66H55.5683C55.4936 13.1187 55.2649 12.68 54.8823 12.344C54.4996 12.008 54.0236 11.84 53.4543 11.84ZM63.0943 10.44C63.8223 10.44 64.4709 10.5987 65.0403 10.916C65.6189 11.2333 66.0716 11.6813 66.3983 12.26C66.7249 12.8387 66.8883 13.506 66.8883 14.262C66.8883 15.018 66.7249 15.69 66.3983 16.278C66.0716 16.8567 65.6189 17.3047 65.0403 17.622C64.4709 17.9393 63.8223 18.098 63.0943 18.098C62.0863 18.098 61.2883 17.762 60.7003 17.09V20.716H58.9503V10.524H60.6163V11.504C60.9056 11.1493 61.2603 10.8833 61.6803 10.706C62.1096 10.5287 62.5809 10.44 63.0943 10.44ZM62.8983 16.6C63.5423 16.6 64.0696 16.3853 64.4803 15.956C64.9003 15.5267 65.1103 14.962 65.1103 14.262C65.1103 13.562 64.9003 12.9973 64.4803 12.568C64.0696 12.1387 63.5423 11.924 62.8983 11.924C62.4783 11.924 62.1003 12.022 61.7643 12.218C61.4283 12.4047 61.1623 12.6753 60.9663 13.03C60.7703 13.3847 60.6723 13.7953 60.6723 14.262C60.6723 14.7287 60.7703 15.1393 60.9663 15.494C61.1623 15.8487 61.4283 16.124 61.7643 16.32C62.1003 16.5067 62.4783 16.6 62.8983 16.6ZM72.8249 10.44C73.7676 10.44 74.5236 10.7153 75.0929 11.266C75.6623 11.8167 75.9469 12.6333 75.9469 13.716V18H74.1969V13.94C74.1969 13.2867 74.0429 12.7967 73.7349 12.47C73.4269 12.134 72.9883 11.966 72.4189 11.966C71.7749 11.966 71.2663 12.162 70.8929 12.554C70.5196 12.9367 70.3329 13.492 70.3329 14.22V18H68.5829V7.612H70.3329V11.392C70.6223 11.084 70.9769 10.8507 71.3969 10.692C71.8263 10.524 72.3023 10.44 72.8249 10.44ZM81.0579 10.44C82.1592 10.44 82.9992 10.706 83.5779 11.238C84.1659 11.7607 84.4599 12.554 84.4599 13.618V18H82.8079V17.09C82.5932 17.4167 82.2852 17.6687 81.8839 17.846C81.4919 18.014 81.0159 18.098 80.4559 18.098C79.8959 18.098 79.4059 18.0047 78.9859 17.818C78.5659 17.622 78.2392 17.356 78.0059 17.02C77.7819 16.6747 77.6699 16.2873 77.6699 15.858C77.6699 15.186 77.9172 14.6493 78.4119 14.248C78.9159 13.8373 79.7046 13.632 80.7779 13.632H82.7099V13.52C82.7099 12.9973 82.5512 12.596 82.2339 12.316C81.9259 12.036 81.4639 11.896 80.8479 11.896C80.4279 11.896 80.0126 11.9613 79.6019 12.092C79.2006 12.2227 78.8599 12.4047 78.5799 12.638L77.8939 11.364C78.2859 11.0653 78.7572 10.8367 79.3079 10.678C79.8586 10.5193 80.4419 10.44 81.0579 10.44ZM80.8199 16.824C81.2586 16.824 81.6459 16.726 81.9819 16.53C82.3272 16.3247 82.5699 16.0353 82.7099 15.662V14.794H80.9039C79.8959 14.794 79.3919 15.1253 79.3919 15.788C79.3919 16.1053 79.5179 16.3573 79.7699 16.544C80.0219 16.7307 80.3719 16.824 80.8199 16.824ZM90.9828 10.44C91.9255 10.44 92.6815 10.7153 93.2508 11.266C93.8201 11.8167 94.1048 12.6333 94.1048 13.716V18H92.3548V13.94C92.3548 13.2867 92.2008 12.7967 91.8928 12.47C91.5848 12.134 91.1461 11.966 90.5768 11.966C89.9328 11.966 89.4241 12.162 89.0508 12.554C88.6775 12.9367 88.4908 13.492 88.4908 14.22V18H86.7408V10.524H88.4068V11.49C88.6961 11.1447 89.0601 10.8833 89.4988 10.706C89.9375 10.5287 90.4321 10.44 90.9828 10.44ZM109.434 18L109.42 11.504L106.2 16.88H105.388L102.168 11.588V18H100.432V8.2H101.93L105.822 14.696L109.644 8.2H111.142L111.156 18H109.434ZM120.698 14.304C120.698 14.4253 120.689 14.598 120.67 14.822H114.804C114.907 15.3727 115.173 15.8113 115.602 16.138C116.041 16.4553 116.582 16.614 117.226 16.614C118.047 16.614 118.724 16.3433 119.256 15.802L120.194 16.88C119.858 17.2813 119.433 17.5847 118.92 17.79C118.407 17.9953 117.828 18.098 117.184 18.098C116.363 18.098 115.639 17.9347 115.014 17.608C114.389 17.2813 113.903 16.8287 113.558 16.25C113.222 15.662 113.054 14.9993 113.054 14.262C113.054 13.534 113.217 12.8807 113.544 12.302C113.88 11.714 114.342 11.2567 114.93 10.93C115.518 10.6033 116.181 10.44 116.918 10.44C117.646 10.44 118.295 10.6033 118.864 10.93C119.443 11.2473 119.891 11.7 120.208 12.288C120.535 12.8667 120.698 13.5387 120.698 14.304ZM116.918 11.84C116.358 11.84 115.882 12.008 115.49 12.344C115.107 12.6707 114.874 13.1093 114.79 13.66H119.032C118.957 13.1187 118.729 12.68 118.346 12.344C117.963 12.008 117.487 11.84 116.918 11.84ZM129.736 7.612V18H128.056V17.034C127.767 17.3887 127.407 17.6547 126.978 17.832C126.558 18.0093 126.091 18.098 125.578 18.098C124.859 18.098 124.211 17.9393 123.632 17.622C123.063 17.3047 122.615 16.8567 122.288 16.278C121.961 15.69 121.798 15.018 121.798 14.262C121.798 13.506 121.961 12.8387 122.288 12.26C122.615 11.6813 123.063 11.2333 123.632 10.916C124.211 10.5987 124.859 10.44 125.578 10.44C126.073 10.44 126.525 10.524 126.936 10.692C127.347 10.86 127.697 11.112 127.986 11.448V7.612H129.736ZM125.788 16.6C126.208 16.6 126.586 16.5067 126.922 16.32C127.258 16.124 127.524 15.8487 127.72 15.494C127.916 15.1393 128.014 14.7287 128.014 14.262C128.014 13.7953 127.916 13.3847 127.72 13.03C127.524 12.6753 127.258 12.4047 126.922 12.218C126.586 12.022 126.208 11.924 125.788 11.924C125.368 11.924 124.99 12.022 124.654 12.218C124.318 12.4047 124.052 12.6753 123.856 13.03C123.66 13.3847 123.562 13.7953 123.562 14.262C123.562 14.7287 123.66 15.1393 123.856 15.494C124.052 15.8487 124.318 16.124 124.654 16.32C124.99 16.5067 125.368 16.6 125.788 16.6ZM132.06 10.524H133.81V18H132.06V10.524ZM132.942 9.292C132.625 9.292 132.359 9.194 132.144 8.998C131.93 8.79267 131.822 8.54067 131.822 8.242C131.822 7.94333 131.93 7.696 132.144 7.5C132.359 7.29467 132.625 7.192 132.942 7.192C133.26 7.192 133.526 7.29 133.74 7.486C133.955 7.67267 134.062 7.91067 134.062 8.2C134.062 8.508 133.955 8.76933 133.74 8.984C133.535 9.18933 133.269 9.292 132.942 9.292ZM140.384 10.44C141.327 10.44 142.083 10.7153 142.652 11.266C143.222 11.8167 143.506 12.6333 143.506 13.716V18H141.756V13.94C141.756 13.2867 141.602 12.7967 141.294 12.47C140.986 12.134 140.548 11.966 139.978 11.966C139.334 11.966 138.826 12.162 138.452 12.554C138.079 12.9367 137.892 13.492 137.892 14.22V18H136.142V10.524H137.808V11.49C138.098 11.1447 138.462 10.8833 138.9 10.706C139.339 10.5287 139.834 10.44 140.384 10.44ZM148.617 10.44C149.719 10.44 150.559 10.706 151.137 11.238C151.725 11.7607 152.019 12.554 152.019 13.618V18H150.367V17.09C150.153 17.4167 149.845 17.6687 149.443 17.846C149.051 18.014 148.575 18.098 148.015 18.098C147.455 18.098 146.965 18.0047 146.545 17.818C146.125 17.622 145.799 17.356 145.565 17.02C145.341 16.6747 145.229 16.2873 145.229 15.858C145.229 15.186 145.477 14.6493 145.971 14.248C146.475 13.8373 147.264 13.632 148.337 13.632H150.269V13.52C150.269 12.9973 150.111 12.596 149.793 12.316C149.485 12.036 149.023 11.896 148.407 11.896C147.987 11.896 147.572 11.9613 147.161 12.092C146.76 12.2227 146.419 12.4047 146.139 12.638L145.453 11.364C145.845 11.0653 146.317 10.8367 146.867 10.678C147.418 10.5193 148.001 10.44 148.617 10.44ZM148.379 16.824C148.818 16.824 149.205 16.726 149.541 16.53C149.887 16.3247 150.129 16.0353 150.269 15.662V14.794H148.463C147.455 14.794 146.951 15.1253 146.951 15.788C146.951 16.1053 147.077 16.3573 147.329 16.544C147.581 16.7307 147.931 16.824 148.379 16.824ZM158.372 7.612H159.982V20.716H158.372V7.612ZM170.526 8.2C171.795 8.2 172.794 8.50333 173.522 9.11C174.25 9.71667 174.614 10.552 174.614 11.616C174.614 12.68 174.25 13.5153 173.522 14.122C172.794 14.7287 171.795 15.032 170.526 15.032H168.104V18H166.704V8.2H170.526ZM170.484 13.814C171.37 13.814 172.047 13.6273 172.514 13.254C172.98 12.8713 173.214 12.3253 173.214 11.616C173.214 10.9067 172.98 10.3653 172.514 9.992C172.047 9.60933 171.37 9.418 170.484 9.418H168.104V13.814H170.484ZM179.66 18.084C178.923 18.084 178.26 17.9207 177.672 17.594C177.084 17.2673 176.622 16.8193 176.286 16.25C175.959 15.6713 175.796 15.018 175.796 14.29C175.796 13.562 175.959 12.9133 176.286 12.344C176.622 11.7653 177.084 11.3173 177.672 11C178.26 10.6733 178.923 10.51 179.66 10.51C180.397 10.51 181.055 10.6733 181.634 11C182.222 11.3173 182.679 11.7653 183.006 12.344C183.342 12.9133 183.51 13.562 183.51 14.29C183.51 15.018 183.342 15.6713 183.006 16.25C182.679 16.8193 182.222 17.2673 181.634 17.594C181.055 17.9207 180.397 18.084 179.66 18.084ZM179.66 16.908C180.136 16.908 180.561 16.8007 180.934 16.586C181.317 16.362 181.615 16.054 181.83 15.662C182.045 15.2607 182.152 14.8033 182.152 14.29C182.152 13.7767 182.045 13.324 181.83 12.932C181.615 12.5307 181.317 12.2227 180.934 12.008C180.561 11.7933 180.136 11.686 179.66 11.686C179.184 11.686 178.755 11.7933 178.372 12.008C177.999 12.2227 177.7 12.5307 177.476 12.932C177.261 13.324 177.154 13.7767 177.154 14.29C177.154 14.8033 177.261 15.2607 177.476 15.662C177.7 16.054 177.999 16.362 178.372 16.586C178.755 16.8007 179.184 16.908 179.66 16.908ZM186.692 11.826C186.925 11.3967 187.271 11.07 187.728 10.846C188.185 10.622 188.741 10.51 189.394 10.51V11.812C189.319 11.8027 189.217 11.798 189.086 11.798C188.358 11.798 187.784 12.0173 187.364 12.456C186.953 12.8853 186.748 13.5013 186.748 14.304V18H185.404V10.58H186.692V11.826ZM195.558 17.566C195.362 17.734 195.119 17.8647 194.83 17.958C194.541 18.042 194.242 18.084 193.934 18.084C193.187 18.084 192.609 17.8833 192.198 17.482C191.787 17.0807 191.582 16.5067 191.582 15.76V11.686H190.322V10.58H191.582V8.956H192.926V10.58H195.054V11.686H192.926V15.704C192.926 16.1053 193.024 16.4133 193.22 16.628C193.425 16.8427 193.715 16.95 194.088 16.95C194.499 16.95 194.849 16.8333 195.138 16.6L195.558 17.566ZM199.934 8.634C199.131 8.634 198.73 9.068 198.73 9.936V10.58H200.886V11.686H198.758V18H197.414V11.686H196.154V10.58H197.414V9.922C197.414 9.18467 197.629 8.60133 198.058 8.172C198.487 7.74267 199.089 7.528 199.864 7.528C200.163 7.528 200.443 7.56533 200.704 7.64C200.965 7.71467 201.189 7.822 201.376 7.962L200.97 8.984C200.662 8.75067 200.317 8.634 199.934 8.634ZM205.257 18.084C204.52 18.084 203.857 17.9207 203.269 17.594C202.681 17.2673 202.219 16.8193 201.883 16.25C201.556 15.6713 201.393 15.018 201.393 14.29C201.393 13.562 201.556 12.9133 201.883 12.344C202.219 11.7653 202.681 11.3173 203.269 11C203.857 10.6733 204.52 10.51 205.257 10.51C205.994 10.51 206.652 10.6733 207.231 11C207.819 11.3173 208.276 11.7653 208.603 12.344C208.939 12.9133 209.107 13.562 209.107 14.29C209.107 15.018 208.939 15.6713 208.603 16.25C208.276 16.8193 207.819 17.2673 207.231 17.594C206.652 17.9207 205.994 18.084 205.257 18.084ZM205.257 16.908C205.733 16.908 206.158 16.8007 206.531 16.586C206.914 16.362 207.212 16.054 207.427 15.662C207.642 15.2607 207.749 14.8033 207.749 14.29C207.749 13.7767 207.642 13.324 207.427 12.932C207.212 12.5307 206.914 12.2227 206.531 12.008C206.158 11.7933 205.733 11.686 205.257 11.686C204.781 11.686 204.352 11.7933 203.969 12.008C203.596 12.2227 203.297 12.5307 203.073 12.932C202.858 13.324 202.751 13.7767 202.751 14.29C202.751 14.8033 202.858 15.2607 203.073 15.662C203.297 16.054 203.596 16.362 203.969 16.586C204.352 16.8007 204.781 16.908 205.257 16.908ZM211.001 7.612H212.345V18H211.001V7.612ZM214.946 10.58H216.29V18H214.946V10.58ZM215.618 9.152C215.357 9.152 215.137 9.068 214.96 8.9C214.792 8.732 214.708 8.52667 214.708 8.284C214.708 8.04133 214.792 7.836 214.96 7.668C215.137 7.49067 215.357 7.402 215.618 7.402C215.879 7.402 216.094 7.486 216.262 7.654C216.439 7.81267 216.528 8.01333 216.528 8.256C216.528 8.508 216.439 8.72267 216.262 8.9C216.094 9.068 215.879 9.152 215.618 9.152ZM222.069 18.084C221.332 18.084 220.669 17.9207 220.081 17.594C219.493 17.2673 219.031 16.8193 218.695 16.25C218.369 15.6713 218.205 15.018 218.205 14.29C218.205 13.562 218.369 12.9133 218.695 12.344C219.031 11.7653 219.493 11.3173 220.081 11C220.669 10.6733 221.332 10.51 222.069 10.51C222.807 10.51 223.465 10.6733 224.043 11C224.631 11.3173 225.089 11.7653 225.415 12.344C225.751 12.9133 225.919 13.562 225.919 14.29C225.919 15.018 225.751 15.6713 225.415 16.25C225.089 16.8193 224.631 17.2673 224.043 17.594C223.465 17.9207 222.807 18.084 222.069 18.084ZM222.069 16.908C222.545 16.908 222.97 16.8007 223.343 16.586C223.726 16.362 224.025 16.054 224.239 15.662C224.454 15.2607 224.561 14.8033 224.561 14.29C224.561 13.7767 224.454 13.324 224.239 12.932C224.025 12.5307 223.726 12.2227 223.343 12.008C222.97 11.7933 222.545 11.686 222.069 11.686C221.593 11.686 221.164 11.7933 220.781 12.008C220.408 12.2227 220.109 12.5307 219.885 12.932C219.671 13.324 219.563 13.7767 219.563 14.29C219.563 14.8033 219.671 15.2607 219.885 15.662C220.109 16.054 220.408 16.362 220.781 16.586C221.164 16.8007 221.593 16.908 222.069 16.908Z" fill="#242424"/>
<circle cx="12.0008" cy="11.9852" r="11.2352" fill="#FFC800" stroke="black" stroke-width="1.5"/>
</svg>
