<svg width="32" height="32" viewBox="0 0 32 32" fill="none" xmlns="http://www.w3.org/2000/svg">
<path fill-rule="evenodd" clip-rule="evenodd" d="M16 0C7.17089 0 0 7.16456 0 16C0 24.8354 7.16456 32 16 32C24.8165 32 32 24.8354 32 16C32 7.16456 24.8165 0 16 0ZM26.5696 7.37342C28.481 9.6962 29.6203 12.6709 29.6582 15.8797C29.2089 15.7911 24.6962 14.8734 20.1519 15.443C20.0506 15.2152 19.962 14.9747 19.8544 14.7342C19.5759 14.0759 19.2658 13.3987 18.9494 12.7595C23.9873 10.7025 26.2785 7.75317 26.5696 7.37342ZM16 2.35443C19.4747 2.35443 22.6456 3.65823 25.057 5.79114C24.8101 6.13924 22.7468 8.89241 17.8924 10.7152C15.6519 6.60127 13.1709 3.23418 12.7911 2.71519C13.8165 2.48101 14.8924 2.35443 16 2.35443ZM10.1899 3.63924C10.557 4.12658 12.981 7.50633 15.2595 11.5316C8.87342 13.2342 3.23417 13.2025 2.62658 13.2025C3.51265 8.96835 6.37342 5.44937 10.1899 3.63924ZM2.32911 16.0127V15.6013C2.91772 15.6203 9.55063 15.7025 16.3671 13.6582C16.7658 14.4241 17.1329 15.2025 17.4747 15.9873C17.2975 16.038 17.1139 16.0886 16.9367 16.1456C9.8924 18.4177 6.14557 24.6266 5.82911 25.1519C3.66456 22.7278 2.32911 19.519 2.32911 16.0127ZM16 29.6709C12.8418 29.6709 9.93038 28.5949 7.62025 26.7911C7.86076 26.2848 10.6392 20.943 18.3418 18.2532C18.3797 18.2342 18.3924 18.2342 18.4304 18.2152C20.3608 23.1962 21.1392 27.3797 21.3481 28.5759C19.7025 29.2911 17.8924 29.6709 16 29.6709ZM23.6203 27.3291C23.481 26.4937 22.7532 22.5063 20.9683 17.5949C25.2532 16.9177 29 18.0316 29.4684 18.1835C28.8797 21.981 26.6899 25.2595 23.6203 27.3291Z" fill="#242424"/>
</svg>
