<svg width="36" height="22" viewBox="0 0 36 22" fill="none" xmlns="http://www.w3.org/2000/svg">
<path d="M14.5421 9.82028C15.5275 10.1268 16.3652 10.5355 17.0242 11.2146C18.213 12.4406 18.5456 13.9491 18.4902 15.5598C18.3793 18.9795 16.0141 20.8245 12.8667 21.3714C12.1338 21.4976 11.3823 21.5577 10.6371 21.5577C7.22483 21.5878 3.81259 21.5758 0.400353 21.5758C0.271008 21.5758 0.147823 21.5577 0 21.5457V0.0420701C0.129345 0.0240402 0.25253 0 0.375716 0C4.12672 0.0180299 7.88387 0.0120199 11.6349 0.0721195C13.0269 0.0901494 14.3881 0.366608 15.5645 1.15992C17.0858 2.18763 17.5047 3.69613 17.4985 5.39695C17.4923 7.34418 16.6054 8.75652 14.8315 9.64599C14.7638 9.68205 14.7022 9.72412 14.5421 9.82028ZM4.88431 12.044V17.8556C6.9723 17.8556 9.02334 17.9518 11.0559 17.8256C12.7374 17.7234 13.5381 16.8279 13.6182 15.2112C13.6982 13.6546 13.1008 12.2303 11.1729 12.086C9.10341 11.9238 7.0031 12.044 4.88431 12.044ZM4.87199 3.618V8.72046C5.12452 8.72046 5.34625 8.72647 5.56799 8.72046C7.23715 8.69642 8.91863 8.75051 10.5816 8.61829C11.9983 8.5041 12.7867 7.50044 12.7743 6.16021C12.762 4.84403 12.0106 3.90648 10.6001 3.7983C8.70922 3.64204 6.81216 3.66608 4.87199 3.618Z" fill="black"/>
<path d="M35.9889 14.8198H24.4649C24.3171 16.9413 25.5058 18.4679 27.5137 18.7082C28.8688 18.8705 30.1438 18.6782 31.1724 17.6866C31.2955 17.5664 31.4495 17.4401 31.505 17.2839C31.6897 16.7851 32.0531 16.725 32.5397 16.743C33.556 16.7791 34.5784 16.755 35.6625 16.755C35.0342 18.6902 34.0241 20.2348 32.1948 21.1603C29.6818 22.4344 25.0377 22.4284 22.42 19.9463C21.0465 18.6421 20.3012 17.0495 20.061 15.2165C19.7407 12.8005 20.1472 10.5407 21.6686 8.5454C24.5573 4.75912 30.9321 4.3865 33.9933 8.04056C35.2744 9.5731 35.8411 11.3641 35.9827 13.3053C36.0197 13.7861 35.9889 14.2729 35.9889 14.8198ZM31.4988 12.0432C31.3756 9.82552 29.959 8.67761 27.988 8.72569C25.9246 8.77377 24.3232 10.2642 24.4526 12.0432H31.4988Z" fill="black"/>
<path d="M32.484 1.43652H23.5469V3.49193H32.484V1.43652Z" fill="black"/>
</svg>
