<svg width="30" height="30" viewBox="0 0 30 30" fill="none" xmlns="http://www.w3.org/2000/svg">
<path fill-rule="evenodd" clip-rule="evenodd" d="M15 0C6.72271 0 0 6.71677 0 15C0 23.2832 6.71677 30 15 30C23.2654 30 30 23.2832 30 15C30 6.71677 23.2654 0 15 0ZM24.909 6.91258C26.7009 9.09019 27.769 11.879 27.8046 14.8873C27.3833 14.8042 23.1527 13.9438 18.8924 14.4778C18.7975 14.2642 18.7144 14.0388 18.6135 13.8133C18.3525 13.1962 18.0617 12.5613 17.765 11.962C22.4881 10.0336 24.6361 7.26859 24.909 6.91258ZM15 2.20728C18.2575 2.20728 21.2302 3.42959 23.4909 5.42919C23.2595 5.75554 21.3252 8.33663 16.7741 10.0455C14.6736 6.18869 12.3477 3.03204 11.9917 2.54549C12.9529 2.32595 13.9616 2.20728 15 2.20728ZM9.55301 3.41179C9.89715 3.86867 12.1697 7.03718 14.3058 10.8109C8.31883 12.407 3.03204 12.3774 2.46242 12.3774C3.29311 8.40783 5.97508 5.10878 9.55301 3.41179ZM2.18354 15.0119V14.6262C2.73536 14.644 8.95372 14.7211 15.3441 12.8046C15.718 13.5225 16.0621 14.2524 16.3825 14.9881C16.2164 15.0356 16.0443 15.0831 15.8782 15.1365C9.27413 17.2666 5.76147 23.0874 5.46479 23.5799C3.43552 21.3074 2.18354 18.2991 2.18354 15.0119ZM15 27.8165C12.0392 27.8165 9.30973 26.8078 7.14398 25.1167C7.36946 24.642 9.97429 19.6341 17.1954 17.1123C17.231 17.0945 17.2429 17.0945 17.2785 17.0767C19.0882 21.7464 19.818 25.6685 20.0138 26.79C18.4711 27.4604 16.7741 27.8165 15 27.8165ZM22.144 25.621C22.0134 24.8378 21.3311 21.0997 19.6578 16.4953C23.6748 15.8604 27.1875 16.9047 27.6266 17.0471C27.0748 20.6072 25.0218 23.6808 22.144 25.621Z" fill="black"/>
</svg>
